<svg xmlns="http://www.w3.org/2000/svg" xmlns:xlink="http://www.w3.org/1999/xlink" width="500" height="437" viewBox="0 0 500 437">
  <defs>
    <clipPath id="clip-path">
      <rect id="Rectángulo_48" data-name="Rectángulo 48" width="500" height="437" transform="translate(1419 5308)" fill="#fff"/>
    </clipPath>
  </defs>
  <g id="Enmascarar_grupo_1" data-name="Enmascarar grupo 1" transform="translate(-1419 -5308)" clip-path="url(#clip-path)">
    <path id="Trazado_35" data-name="Trazado 35" d="M2045,5604.883a50.774,50.774,0,0,0-82.306-39.8,306.749,306.749,0,0,1-71.3,36.258c-49.239,17.109-92.541,16.349-128.81-2.244,93.5-34.393,182.1-93.773,226.747-152.169,25.446-33.286,39.9-66.833,42.948-99.708a128.079,128.079,0,0,0-4.847-49.7,117.673,117.673,0,0,0-23.556-42.593c-24.282-28.129-61.211-44.694-103.986-46.644-40.371-1.834-83.62,9.331-125.068,32.308a292.271,292.271,0,0,0-66.244,50.866,343.583,343.583,0,0,0-50.616,65.964c-29.293,49.447-45.537,104.643-45.739,155.421q-.031,8.037.452,15.866-4.638.212-9.174.261c-38.024.409-70.227-7.485-95.706-23.492a50.774,50.774,0,0,0-54.022,85.987c41.28,25.934,90.662,39.071,146.846,39.07,1.327,0,2.665-.007,4-.022a394.173,394.173,0,0,0,40.66-2.6c15.809,23.328,36.822,42.477,62.685,57.085,35.546,20.076,74.929,30.148,116.738,30.148,33.152,0,67.833-6.336,103.314-19.043,57.188-20.48,97.4-51.008,99.083-52.3l-.107-.139A50.66,50.66,0,0,0,2045,5604.883Zm-331.141-96.293c1.111-31.773,12.2-66.874,31.468-99.4,20.554-34.694,48.512-63.025,78.727-79.774,23.133-12.824,46.836-19.768,67.256-19.768q2,0,3.953.089c14.186.647,26.052,4.967,31.741,11.557,2.207,2.556,5.039,7.053,4.158,16.548-1.225,13.194-9.219,30.035-22.509,47.42-15.289,20-41.013,42.53-72.435,63.443a526.94,526.94,0,0,1-112.688,56.544Q1718.688,5506.978,1713.859,5508.59Z" fill="#fff" opacity="0.08"/>
  </g>
</svg>
