<svg xmlns="http://www.w3.org/2000/svg" width="420.243" height="166.549" viewBox="0 0 420.243 166.549">
  <g id="Grupo_90" data-name="Grupo 90" transform="translate(-254.757 -5328.197)">
    <g id="Grupo_86" data-name="Grupo 86">
      <path id="Trazado_32" data-name="Trazado 32" d="M291.975,5494.746c-3.553,0-10.166,0-14.912-5.2-5.093-5.578-6.339-14.783-4.6-33.964,3.773-41.5,32.726-119.073,33.957-122.355a7.753,7.753,0,1,1,14.52,5.444c-.294.785-29.45,78.894-33.034,118.315a102.351,102.351,0,0,0-.493,17.191,13.062,13.062,0,0,0,1.032,4.8,13.58,13.58,0,0,0,3.307.257c.665-.209,4.915-1.939,14.67-14.087,7.016-8.736,15.224-20.829,23.738-34.971l.158-.262c1.562-10.237,3.379-20.718,5.409-31.133,4.292-22.017,10.5-48.212,15.06-55.7a23.635,23.635,0,0,1,10.614-9.79,16.023,16.023,0,0,1,13.1.061c8.2,3.768,11.806,13.694,8.58,23.6-3.32,10.2-8.993,23.494-16.015,37.847q8.94-7.515,19.342-7.527c8.366,0,13.077,3.807,15.556,7,4.355,5.61,5.659,13.872,4.1,26-1.17,9.119-3.761,19.243-6.266,29.035-1.848,7.222-3.594,14.044-4.567,19.708a42.424,42.424,0,0,0-.764,7.506,24.629,24.629,0,0,0,6.248-6.008c6.132-7.756,12.87-21.158,18.467-36.592-8.046-7.679-11.072-19.421-8.1-31.843,1.983-8.288,7.485-18.689,16.465-20.729,5.077-1.153,10.023.694,13.571,5.067,2.407,2.966,3.194,7.326,2.552,14.136a117.193,117.193,0,0,1-3.19,16.973q-.336,1.324-.7,2.665c3.87-3.891,9.361-11.379,16.036-25.789,4.982-10.759,17.741-16.629,27.3-12.562,3.308,1.407,9.015,5.23,10.069,15.028.7,6.52-.865,14.774-4.656,24.534-3.666,9.439-7.518,18.241-10.916,26.008-3.545,8.1-6.607,15.1-8.58,20.763a36.958,36.958,0,0,0-2.1,8.1c1.552-.144,4.717-1.841,8.9-6.261,4.571-4.827,9.531-11.974,14.344-20.667a212.647,212.647,0,0,0,13.045-28.661,331.705,331.705,0,0,1,9.221-32.267,7.753,7.753,0,0,1,14.924,4.054,216.464,216.464,0,0,1-9.231,32.559q-.376,1.65-.735,3.331c-6.723,31.473-2.7,42.02-.651,45.094a5.6,5.6,0,0,0,4.857,2.687c6.55.4,14.341-6.8,21.926-20.243q1.2-2.124,2.385-4.444a137.032,137.032,0,0,1,2.235-16.1c2.976-15.348,7.965-30.519,10.362-37.81q.3-.91.547-1.665c4.149-12.709,12.552-10.977,14.194-10.5,5.668,1.643,8.764,8.22,7.049,14.972-5.546,21.834-12.08,40.685-19.092,55.17-.315,8.964,1.271,13.237,2.553,15.2a5.6,5.6,0,0,0,4.662,2.654c2.628.256,7.35-1.216,13.935-5.461a48.541,48.541,0,0,1-2.128-17.91c.634-11.86,4.835-25.739,11.525-38.078,3.2-5.907,11.783-20.081,22.279-24.132,9.015-3.48,18.087-1.458,23.674,5.277,3.989,4.811,5.819,11.667,5.151,19.307s-3.661,15.8-8.9,24.258c-6.473,10.456-17.974,23.658-29.3,33.633q-.816.719-1.622,1.41a18.014,18.014,0,0,0,2.756,1.743c10.28,5.289,19.754,4.279,28.963-3.089A52.775,52.775,0,0,0,646.9,5455.92a7.754,7.754,0,0,1,13.719,7.229A68.166,68.166,0,0,1,644.9,5482.1a43.8,43.8,0,0,1-19.685,9.53c-8.723,1.626-17.636.14-26.488-4.416a32.909,32.909,0,0,1-8.3-6.022c-8.972,5.714-16.838,8.271-23.487,7.62a21.044,21.044,0,0,1-16.142-9.618,25.364,25.364,0,0,1-1.854-3.4c-8.774,11.1-18.23,16.422-28.226,15.832a21,21,0,0,1-16.862-9.585c-2.779-4.181-4.538-9.633-5.279-16.424a100.325,100.325,0,0,1-11.462,15.061c-6.984,7.377-13.838,11.116-20.371,11.116-7.425,0-11.174-3.35-13.012-6.16-5.842-8.932.006-22.295,9.693-44.434,3.337-7.627,7.119-16.271,10.668-25.406,5.33-13.722,3.664-19.091,2.966-19.684a3.491,3.491,0,0,0-2.042.237,9.155,9.155,0,0,0-5.115,4.578c-10.845,23.416-21.559,36.028-32.755,38.555a19.1,19.1,0,0,1-3.637.465c-2.4,6.533-5.052,12.908-7.827,18.732-10.915,22.911-21.73,34.048-33.063,34.048a12.764,12.764,0,0,1-10.354-4.869c-6.261-8.064-2.578-22.461,2.521-42.386,2.389-9.337,4.859-18.992,5.908-27.165,1.318-10.277-.24-13.577-.971-14.518-.213-.275-.778-1-3.307-1-5.21,0-10.47,3.655-15.635,10.864-4.913,6.857-9.505,16.6-13.649,28.971a286.913,286.913,0,0,0-10.494,43.77,7.752,7.752,0,0,1-7.323,6.638l-6.854.31a7.754,7.754,0,0,1-8.094-8.131c.311-6.237.82-12.978,1.511-20.085-3.208,4.472-6.278,8.477-9.157,11.938C306.548,5489.293,298.916,5494.746,291.975,5494.746Zm-.307-15.483Zm-3.141-.155h0Zm334.166-77.489a8.727,8.727,0,0,0-3.053.65c-3.035,1.171-8.782,7.008-14.23,17.056-5.631,10.386-9.157,21.873-9.672,31.515a40.59,40.59,0,0,0,.139,6.513c9.794-8.866,19.454-20.036,24.924-28.872,8.838-14.278,7.131-22.925,4.994-25.5A3.839,3.839,0,0,0,622.693,5401.619Zm-194.6-1.2a24.045,24.045,0,0,0-2.413,7.974,22.386,22.386,0,0,0-.093,4.832A109.769,109.769,0,0,0,428.092,5400.423Zm-60.151-52.989c-.46,0-2.107.764-3.9,3.716-1.486,2.44-5.168,13.688-9.752,34.494,6.172-12.782,11.131-24.5,14.055-33.483.984-3.023.044-4.55-.31-4.712A.211.211,0,0,0,367.941,5347.434Z" fill="#2828e0"/>
    </g>
    <g id="Grupo_87" data-name="Grupo 87">
      <path id="Trazado_33" data-name="Trazado 33" d="M264.208,5398.912a9.46,9.46,0,0,1-.608-18.9l61.719-4.031a9.459,9.459,0,0,1,1.233,18.878l-61.718,4.032Q264.519,5398.913,264.208,5398.912Z" fill="#2828e0"/>
    </g>
    <g id="Grupo_89" data-name="Grupo 89">
      <g id="Grupo_88" data-name="Grupo 88">
        <circle id="Elipse_16" data-name="Elipse 16" cx="10.002" cy="10.002" r="10.002" transform="translate(654.996 5426.669)" fill="#141496"/>
      </g>
    </g>
  </g>
</svg>
