<svg xmlns="http://www.w3.org/2000/svg" width="192.28" height="49.996" viewBox="0 0 192.28 49.996">
  <g id="Logo" transform="translate(-76.8 -117.267)">
    <g id="Grupo_5" data-name="Grupo 5" transform="translate(76.8 117.267)">
      <path id="Trazado_20" data-name="Trazado 20" d="M494.458,171.744a13.619,13.619,0,0,1-6.836,1.845c-6.237,0-9.979-3.393-9.979-9.979V154.13H473.1v-6.336h4.541v-7.386h7.984v7.386h7.383v6.336h-7.383v8.681c0,2.595,1.246,3.643,3.342,3.643a8.144,8.144,0,0,0,3.643-1Z" transform="translate(-413.288 -136.915)" fill="#fff"/>
      <path id="Trazado_21" data-name="Trazado 21" d="M660.146,137.824v15.37h-7.934V139.521c0-2.944-1.745-4.94-4.341-4.94-3.094,0-5.14,2.146-5.14,6.985v11.627h-7.984V117.267h7.984V130.54a10.438,10.438,0,0,1,7.735-3.145c5.786,0,9.68,4.142,9.68,10.428" transform="translate(-550.536 -117.267)" fill="#fff"/>
      <path id="Trazado_22" data-name="Trazado 22" d="M857.787,187.228l-.349,7.984h-1.448c-5.588,0-8.631,2.893-8.631,9.38v7.835h-7.983V187.379h7.983v4.789a9.67,9.67,0,0,1,8.631-5.139,6.852,6.852,0,0,1,1.8.2" transform="translate(-724.282 -176.5)" fill="#fff"/>
      <path id="Trazado_23" data-name="Trazado 23" d="M1006.91,214.393h-7.984V212a10.326,10.326,0,0,1-7.684,3.143c-5.837,0-9.728-4.14-9.728-10.428V189.345h7.933v13.671c0,2.944,1.746,4.94,4.291,4.94,3.143,0,5.188-2.146,5.188-6.987V189.345h7.984Z" transform="translate(-844.966 -178.466)" fill="#fff"/>
      <path id="Trazado_24" data-name="Trazado 24" d="M1203.4,199.693h-18.363c.649,2.994,2.693,4.841,5.39,4.841a5.558,5.558,0,0,0,5.337-2.895l7.086,1.448c-2.146,5.289-6.686,7.833-12.423,7.833a13.273,13.273,0,0,1,.049-26.545c7.085,0,12.774,5.089,12.924,13.273Zm-18.214-4.89h10.329a5.005,5.005,0,0,0-5.04-3.941,5.49,5.49,0,0,0-5.289,3.941" transform="translate(-1011.119 -174.246)" fill="#fff"/>
      <g id="Grupo_4" data-name="Grupo 4" transform="translate(0 0.57)">
        <rect id="Rectángulo_7" data-name="Rectángulo 7" width="48.089" height="48.089" fill="#fea61e"/>
        <rect id="Rectángulo_8" data-name="Rectángulo 8" width="21.942" height="4.702" transform="translate(13.342 12.412)" fill="#fff"/>
        <rect id="Rectángulo_9" data-name="Rectángulo 9" width="26.646" height="4.702" transform="translate(10.99 21.817)" fill="#fff"/>
        <rect id="Rectángulo_10" data-name="Rectángulo 10" width="31.346" height="4.702" transform="translate(8.64 31.22)" fill="#fff"/>
      </g>
      <path id="Trazado_25" data-name="Trazado 25" d="M505.744,403.117l-.566.267a.882.882,0,0,0-.38-.535,1.156,1.156,0,0,0-.661-.2.992.992,0,0,0-.464.1.791.791,0,0,0-.331.341.95.95,0,0,0-.088.394.779.779,0,0,0,.454.724l1.362.5a1.442,1.442,0,0,1,.572.561,1.535,1.535,0,0,1,.2.755,1.632,1.632,0,0,1-.14.659,1.613,1.613,0,0,1-.42.558,1.928,1.928,0,0,1-1.127.351,1.966,1.966,0,0,1-1.026-.28,1.371,1.371,0,0,1-.383-.421,2.755,2.755,0,0,1-.24-.606l.58-.295a.984.984,0,0,0,.323.753,1.079,1.079,0,0,0,.762.3,1.092,1.092,0,0,0,.339-.053,1.069,1.069,0,0,0,.33-.176.843.843,0,0,0,.258-.328,1.018,1.018,0,0,0,.1-.437.72.72,0,0,0-.155-.507,1.406,1.406,0,0,0-.244-.222,3.257,3.257,0,0,0-.362-.179l-.918-.323a1.748,1.748,0,0,1-.661-.527,1.232,1.232,0,0,1-.252-.757,2.505,2.505,0,0,1,.055-.393,1.262,1.262,0,0,1,.341-.6,1.146,1.146,0,0,1,.628-.384,3.058,3.058,0,0,1,.607-.068,1.7,1.7,0,0,1,.178.007c.043,0,.156.025.334.061a1.334,1.334,0,0,1,.575.311,1.381,1.381,0,0,1,.425.638" transform="translate(-438.251 -359.11)" fill="#fea61e"/>
      <path id="Trazado_26" data-name="Trazado 26" d="M554.387,418.321a.607.607,0,0,1-.368.214,2.618,2.618,0,0,1-.537.053h-.22a1.86,1.86,0,0,1-.951-.243,1.547,1.547,0,0,1-.637-.719,2.164,2.164,0,0,1-.164-.81,1.774,1.774,0,0,1,.147-.717,1.652,1.652,0,0,1,.427-.585,1.53,1.53,0,0,1,.624-.341,2.818,2.818,0,0,1,.747-.093,1.814,1.814,0,0,1,.875.22v.575a.516.516,0,0,1-.268-.093,1.367,1.367,0,0,0-.313-.132,1.578,1.578,0,0,0-.344-.025,1.518,1.518,0,0,0-.5.081,1.074,1.074,0,0,0-.416.263,1.336,1.336,0,0,0-.359.889,1.277,1.277,0,0,0,.229.717,1.5,1.5,0,0,0,.132.144c.051.048.109.1.177.151a1.368,1.368,0,0,0,.717.2,1.448,1.448,0,0,0,.531-.1,3.16,3.16,0,0,1,.351-.242.2.2,0,0,1,.121-.013Z" transform="translate(-479.862 -370.131)" fill="#fea61e"/>
      <path id="Trazado_27" data-name="Trazado 27" d="M599.938,418.644H599.4v-.661a1.28,1.28,0,0,1-.546.555,1.586,1.586,0,0,1-.768.2,1.37,1.37,0,0,1-.86-.265,1.525,1.525,0,0,1-.514-.6,1.908,1.908,0,0,1-.056-1.689,2.741,2.741,0,0,1,.4-.543,1.353,1.353,0,0,1,.795-.4c.038,0,.081,0,.127-.006a.935.935,0,0,1,.1-.007,1.489,1.489,0,0,1,.73.179,1.559,1.559,0,0,1,.562.523v-.618h.566Zm-.675-1.058a1.544,1.544,0,0,0,.108-.578,1.4,1.4,0,0,0-.186-.72,1.106,1.106,0,0,0-.558-.47,1.433,1.433,0,0,0-.315-.043l-.215-.008a1.1,1.1,0,0,0-.736.452,1.374,1.374,0,0,0-.279.835,1.277,1.277,0,0,0,.1.515,1.252,1.252,0,0,0,.376.454,1.025,1.025,0,0,0,.672.222,1.108,1.108,0,0,0,1.03-.658" transform="translate(-518.05 -370.253)" fill="#fea61e"/>
      <rect id="Rectángulo_11" data-name="Rectángulo 11" width="0.595" height="5.596" transform="translate(87.241 42.796)" fill="#fea61e"/>
      <path id="Trazado_28" data-name="Trazado 28" d="M696.5,417.732a2.181,2.181,0,0,1-.732.631,1.9,1.9,0,0,1-.912.23,1.821,1.821,0,0,1-.875-.224,1.637,1.637,0,0,1-.588-.652,1.918,1.918,0,0,1-.2-.875,1.892,1.892,0,0,1,.371-1.146,1.246,1.246,0,0,1,.759-.566,4.459,4.459,0,0,1,.535-.061,1.829,1.829,0,0,1,.859.209,1.279,1.279,0,0,1,.585.636,2.484,2.484,0,0,1,.186,1h-2.7a1.237,1.237,0,0,0,.306.84.989.989,0,0,0,.774.351,1.12,1.12,0,0,0,.258-.028,1.05,1.05,0,0,0,.5-.205,2.185,2.185,0,0,0,.407-.434Zm-.6-1.249a1.123,1.123,0,0,0-.383-.658,1.061,1.061,0,0,0-.709-.253.9.9,0,0,0-.643.268,1.289,1.289,0,0,0-.362.643Z" transform="translate(-600.16 -370.122)" fill="#fea61e"/>
      <path id="Trazado_29" data-name="Trazado 29" d="M791.6,415.782l-2.21,4.938-.646,0,.971-2.118-1.43-2.824H789l1,2.318.942-2.318Z" transform="translate(-680.9 -370.728)" fill="#fea61e"/>
      <path id="Trazado_30" data-name="Trazado 30" d="M838.282,416.871a1.665,1.665,0,0,1-.527,1.239,1.833,1.833,0,0,1-2.54,0,1.673,1.673,0,0,1-.527-1.245,1.751,1.751,0,0,1,.513-1.267,1.681,1.681,0,0,1,1.253-.528,1.786,1.786,0,0,1,1.291.525,1.712,1.712,0,0,1,.538,1.277m-.538,0a1.23,1.23,0,0,0-.356-.888,1.154,1.154,0,0,0-.864-.368,1.231,1.231,0,0,0-.892.353,1.138,1.138,0,0,0-.373.86,1.22,1.22,0,0,0,.36.878,1.163,1.163,0,0,0,.867.371,1.245,1.245,0,0,0,.883-.349,1.125,1.125,0,0,0,.374-.856" transform="translate(-720.3 -370.122)" fill="#fea61e"/>
      <path id="Trazado_31" data-name="Trazado 31" d="M888.462,417.971a1.452,1.452,0,0,1-.363.821,1.1,1.1,0,0,1-.617.381,3.384,3.384,0,0,1-.463.055,1.647,1.647,0,0,1-.761-.177,1.215,1.215,0,0,1-.531-.533,1.762,1.762,0,0,1-.113-.475v-2.261h.609v1.966a1.092,1.092,0,0,0,.219.679.7.7,0,0,0,.584.292h.088a.862.862,0,0,0,.519-.257.7.7,0,0,0,.218-.513v-2.166h.611Z" transform="translate(-763.541 -370.727)" fill="#fea61e"/>
      <path id="Trazado_32" data-name="Trazado 32" d="M937.977,415.525l-.345.474a.587.587,0,0,0-.388-.165.656.656,0,0,0-.508.276,1.43,1.43,0,0,0-.3.606v2h-.581v-3.307h.539v.811a1.5,1.5,0,0,1,.335-.6.882.882,0,0,1,.555-.313,1.23,1.23,0,0,1,.7.215" transform="translate(-806.196 -370.327)" fill="#fea61e"/>
      <path id="Trazado_33" data-name="Trazado 33" d="M1030.766,408.022l-.863,0-2-2.713v2.713h-.666v-5.309l1.967.022a1.154,1.154,0,0,1,.928.431,1.552,1.552,0,0,1,.259,1.557,1.3,1.3,0,0,1-.34.474,1.659,1.659,0,0,1-.581.31l-.7,0Zm-1.46-4.67a1.892,1.892,0,0,0-.2-.061.9.9,0,0,0-.19-.023h-1.013v1.779h1.186a.638.638,0,0,0,.533-.24.9.9,0,0,0,.191-.585,1.09,1.09,0,0,0-.129-.525.766.766,0,0,0-.382-.344" transform="translate(-883.792 -359.632)" fill="#fea61e"/>
      <path id="Trazado_34" data-name="Trazado 34" d="M1076.853,417.732a2.186,2.186,0,0,1-.731.631,1.9,1.9,0,0,1-.912.23,1.818,1.818,0,0,1-.875-.224,1.64,1.64,0,0,1-.588-.652,1.92,1.92,0,0,1-.2-.875,1.9,1.9,0,0,1,.37-1.146,1.25,1.25,0,0,1,.761-.566,4.4,4.4,0,0,1,.534-.061,1.825,1.825,0,0,1,.858.209,1.271,1.271,0,0,1,.584.636,2.47,2.47,0,0,1,.187,1h-2.7a1.227,1.227,0,0,0,.308.84.983.983,0,0,0,.772.351,1.119,1.119,0,0,0,.259-.028,1.044,1.044,0,0,0,.494-.205,2.11,2.11,0,0,0,.407-.434Zm-.6-1.249a1.112,1.112,0,0,0-.38-.658,1.072,1.072,0,0,0-.712-.253.9.9,0,0,0-.642.268,1.3,1.3,0,0,0-.362.643Z" transform="translate(-923.107 -370.122)" fill="#fea61e"/>
      <path id="Trazado_35" data-name="Trazado 35" d="M1126.874,415.77l-.488.28a.568.568,0,0,0-.291-.335.994.994,0,0,0-.5-.133.686.686,0,0,0-.33.076.374.374,0,0,0-.19.2.6.6,0,0,0-.046.205.492.492,0,0,0,.215.366l1.119.4a.809.809,0,0,1,.379.316.841.841,0,0,1,.13.452,1.068,1.068,0,0,1-.183.594.985.985,0,0,1-.5.391,2.435,2.435,0,0,1-.263.052,2.049,2.049,0,0,1-.268.021,1.741,1.741,0,0,1-.75-.164,1.557,1.557,0,0,1-.593-.487l.5-.341a.948.948,0,0,0,.347.387.913.913,0,0,0,.495.144.694.694,0,0,0,.406-.108.583.583,0,0,0,.2-.194.4.4,0,0,0,.044-.181.445.445,0,0,0-.1-.276.624.624,0,0,0-.281-.19c-.229-.068-.469-.141-.72-.222a1.043,1.043,0,0,1-.542-.354.91.91,0,0,1-.208-.566.77.77,0,0,1,.307-.681,1.481,1.481,0,0,1,.541-.255,3.174,3.174,0,0,1,.554-.043,1.192,1.192,0,0,1,.579.187,1.584,1.584,0,0,1,.438.459" transform="translate(-966.218 -370.169)" fill="#fea61e"/>
      <path id="Trazado_36" data-name="Trazado 36" d="M1173.71,417.971a1.465,1.465,0,0,1-.364.821,1.1,1.1,0,0,1-.617.381,3.327,3.327,0,0,1-.463.055,1.642,1.642,0,0,1-.759-.177,1.2,1.2,0,0,1-.532-.533,1.885,1.885,0,0,1-.116-.475v-2.261h.611v1.966a1.093,1.093,0,0,0,.22.679.694.694,0,0,0,.585.292h.084a.864.864,0,0,0,.521-.257.7.7,0,0,0,.218-.513v-2.166h.611Z" transform="translate(-1005.733 -370.727)" fill="#fea61e"/>
      <rect id="Rectángulo_12" data-name="Rectángulo 12" width="0.596" height="5.596" transform="translate(173.349 42.796)" fill="#fea61e"/>
      <path id="Trazado_37" data-name="Trazado 37" d="M1271.607,408.981h-.6v2.834h-.581v-2.834h-.523v-.46h.523V407.18h.581v1.341h.6Z" transform="translate(-1089.832 -363.423)" fill="#fea61e"/>
      <path id="Trazado_38" data-name="Trazado 38" d="M1317.052,415.77l-.487.28a.578.578,0,0,0-.291-.335,1,1,0,0,0-.5-.133.693.693,0,0,0-.33.076.378.378,0,0,0-.19.2.635.635,0,0,0-.047.205.5.5,0,0,0,.216.366l1.121.4a.813.813,0,0,1,.379.316.843.843,0,0,1,.127.452,1.071,1.071,0,0,1-.181.594.99.99,0,0,1-.5.391c-.078.02-.164.037-.262.052a2.072,2.072,0,0,1-.268.021,1.743,1.743,0,0,1-.752-.164,1.561,1.561,0,0,1-.591-.487l.5-.341a.934.934,0,0,0,.839.532.686.686,0,0,0,.4-.108.589.589,0,0,0,.2-.194.4.4,0,0,0,.042-.181.433.433,0,0,0-.1-.276.614.614,0,0,0-.278-.19c-.229-.068-.469-.141-.721-.222a1.035,1.035,0,0,1-.542-.354.9.9,0,0,1-.209-.566.767.767,0,0,1,.306-.681,1.466,1.466,0,0,1,.541-.255,3.17,3.17,0,0,1,.552-.043,1.206,1.206,0,0,1,.581.187,1.6,1.6,0,0,1,.435.459" transform="translate(-1127.694 -370.169)" fill="#fea61e"/>
    </g>
  </g>
</svg>
