<svg xmlns="http://www.w3.org/2000/svg" width="141" height="55.881" viewBox="0 0 141 55.881">
  <g id="Grupo_37" data-name="Grupo 37" transform="translate(-266 -23.179)">
    <g id="Grupo_34" data-name="Grupo 34">
      <path id="Trazado_5" data-name="Trazado 5" d="M278.487,79.06a6.358,6.358,0,0,1-5-1.744c-1.709-1.871-2.127-4.96-1.542-11.4C273.208,52,282.923,25.969,283.335,24.868a2.6,2.6,0,0,1,4.872,1.827c-.1.263-9.881,26.47-11.083,39.7a34.386,34.386,0,0,0-.166,5.768,4.392,4.392,0,0,0,.346,1.61,4.617,4.617,0,0,0,1.11.087c.223-.07,1.649-.651,4.922-4.727A110.454,110.454,0,0,0,291.3,57.4l.053-.088c.524-3.435,1.133-6.952,1.815-10.446,1.44-7.387,3.523-16.176,5.052-18.688a7.934,7.934,0,0,1,3.562-3.285,5.375,5.375,0,0,1,4.4.021c2.751,1.264,3.961,4.6,2.879,7.919a104.687,104.687,0,0,1-5.374,12.7A9.906,9.906,0,0,1,310.173,43a6.273,6.273,0,0,1,5.22,2.349c1.461,1.882,1.9,4.654,1.376,8.724a85.032,85.032,0,0,1-2.1,9.742c-.62,2.423-1.206,4.712-1.533,6.613a14.33,14.33,0,0,0-.256,2.518,8.239,8.239,0,0,0,2.1-2.016c2.058-2.6,4.319-7.1,6.2-12.277-2.7-2.577-3.715-6.516-2.718-10.684.665-2.781,2.511-6.271,5.524-6.955a4.468,4.468,0,0,1,4.554,1.7c.807,1,1.071,2.458.856,4.743a39.256,39.256,0,0,1-1.071,5.695q-.113.444-.233.894c1.3-1.306,3.141-3.818,5.38-8.653,1.672-3.61,5.953-5.579,9.161-4.215A5.735,5.735,0,0,1,346,46.224a18.277,18.277,0,0,1-1.562,8.231c-1.23,3.167-2.522,6.12-3.662,8.726-1.19,2.718-2.217,5.066-2.879,6.967a12.352,12.352,0,0,0-.7,2.717c.52-.049,1.582-.618,2.986-2.1a35.04,35.04,0,0,0,4.813-6.934,71.34,71.34,0,0,0,4.377-9.616,111.221,111.221,0,0,1,3.094-10.827,2.6,2.6,0,0,1,5.007,1.36,72.572,72.572,0,0,1-3.1,10.925q-.126.553-.247,1.117c-2.255,10.56-.9,14.1-.218,15.13a1.877,1.877,0,0,0,1.629.9c2.2.133,4.812-2.283,7.357-6.792q.4-.712.8-1.491a45.982,45.982,0,0,1,.75-5.4,107.085,107.085,0,0,1,3.477-12.686l.183-.559c1.393-4.264,4.212-3.683,4.763-3.523,1.9.551,2.94,2.757,2.365,5.023A100.145,100.145,0,0,1,368.828,65.9c-.106,3.007.427,4.441.857,5.1a1.879,1.879,0,0,0,1.564.89c.882.086,2.466-.408,4.676-1.832a16.27,16.27,0,0,1-.715-6.009,31.6,31.6,0,0,1,3.867-12.776c1.075-1.982,3.954-6.738,7.475-8.1a6.808,6.808,0,0,1,7.943,1.77,8.843,8.843,0,0,1,1.729,6.478,18.8,18.8,0,0,1-2.985,8.139,56.127,56.127,0,0,1-9.831,11.285q-.274.242-.544.473a6.03,6.03,0,0,0,.924.585,8.27,8.27,0,0,0,9.718-1.037,17.7,17.7,0,0,0,4.066-4.838,2.6,2.6,0,1,1,4.6,2.425,22.868,22.868,0,0,1-5.275,6.36,14.7,14.7,0,0,1-6.6,3.2,13.642,13.642,0,0,1-8.887-1.482,11.036,11.036,0,0,1-2.785-2.02c-3.011,1.917-5.65,2.774-7.881,2.556a7.06,7.06,0,0,1-5.416-3.227,8.623,8.623,0,0,1-.622-1.14c-2.944,3.725-6.116,5.51-9.47,5.312a7.046,7.046,0,0,1-5.658-3.216,12.262,12.262,0,0,1-1.771-5.511,33.584,33.584,0,0,1-3.846,5.053c-2.343,2.475-4.643,3.73-6.835,3.73A4.844,4.844,0,0,1,332.759,76c-1.96-3,0-7.48,3.252-14.908,1.12-2.559,2.389-5.46,3.579-8.525,1.789-4.6,1.23-6.4.995-6.6a1.175,1.175,0,0,0-.685.08,3.07,3.07,0,0,0-1.716,1.536c-3.639,7.856-7.234,12.088-10.99,12.936a6.44,6.44,0,0,1-1.22.156c-.8,2.192-1.7,4.33-2.626,6.285-3.663,7.687-7.291,11.423-11.094,11.423a4.285,4.285,0,0,1-3.474-1.633c-2.1-2.706-.864-7.536.846-14.222a80.99,80.99,0,0,0,1.982-9.114c.443-3.448-.08-4.555-.325-4.871-.072-.092-.261-.337-1.11-.337-1.748,0-3.513,1.227-5.246,3.645a37.433,37.433,0,0,0-4.579,9.721,96.1,96.1,0,0,0-3.521,14.686,2.6,2.6,0,0,1-2.457,2.227l-2.3.1a2.6,2.6,0,0,1-2.716-2.728c.105-2.093.276-4.355.507-6.739-1.076,1.5-2.106,2.844-3.072,4C283.377,77.23,280.816,79.06,278.487,79.06Zm-.1-5.195Zm-1.054-.052h0Zm112.12-26a2.928,2.928,0,0,0-1.024.218c-1.019.393-2.947,2.351-4.775,5.722a26.251,26.251,0,0,0-3.245,10.574,13.6,13.6,0,0,0,.047,2.186,50.073,50.073,0,0,0,8.362-9.687c2.966-4.791,2.393-7.692,1.676-8.557A1.291,1.291,0,0,0,389.45,47.814Zm-65.293-.4a8.056,8.056,0,0,0-.809,2.675,7.485,7.485,0,0,0-.032,1.621A36.528,36.528,0,0,0,324.157,47.413Zm-20.181-17.78c-.155,0-.707.257-1.31,1.247-.5.819-1.734,4.593-3.272,11.574a95.842,95.842,0,0,0,4.715-11.234c.331-1.015.015-1.527-.1-1.581A.067.067,0,0,0,303.976,29.633Z" fill="#fff"/>
    </g>
    <g id="Grupo_35" data-name="Grupo 35">
      <path id="Trazado_6" data-name="Trazado 6" d="M269.171,46.906a3.174,3.174,0,0,1-.2-6.341l20.708-1.353a3.174,3.174,0,1,1,.414,6.334L269.381,46.9C269.31,46.9,269.24,46.906,269.171,46.906Z" fill="#fff"/>
    </g>
    <g id="Grupo_36" data-name="Grupo 36">
      <circle id="Elipse_3" data-name="Elipse 3" cx="3.356" cy="3.356" r="3.356" transform="translate(400.288 56.219)" fill="#fff"/>
    </g>
  </g>
</svg>
