<svg xmlns="http://www.w3.org/2000/svg" xmlns:xlink="http://www.w3.org/1999/xlink" width="332.206" height="20" viewBox="0 0 332.206 20">
  <defs>
    <clipPath id="clip-path">
      <rect id="Rectángulo_147822" data-name="Rectángulo 147822" width="209.206" height="8" fill="none"/>
    </clipPath>
  </defs>
  <g id="Grupo_2433" data-name="Grupo 2433" transform="translate(-139 -1696)">
    <g id="Logo_Nolan" data-name="Logo Nolan" transform="translate(-356 1347.999)">
      <path id="Trazado_1" data-name="Trazado 1" d="M.188,0C.122.068.059.137,0,.209v4.27c.069.084.142.165.22.243l14.45,14.45c.078.078.16.151.243.22h4.27c.071-.059.14-.122.208-.188V14.38L5.012,0Zm.961,11.481A3.949,3.949,0,0,0,0,11.653v7.568a3.955,3.955,0,1,0,1.149-7.739M16.855,0a3.953,3.953,0,0,0,2.535,7.483V0Z" transform="translate(495 347.999)" fill="#ff8048"/>
      <path id="Trazado_2" data-name="Trazado 2" d="M90.207,0A10.237,10.237,0,0,0,79.848,10a10.365,10.365,0,0,0,20.717,0A10.255,10.255,0,0,0,90.207,0m0,15.11A5.025,5.025,0,0,1,85.29,10,4.906,4.906,0,1,1,95.1,10a5,5,0,0,1-4.889,5.11m27.207-.193h-8.4V1.027a.678.678,0,0,0-.663-.691h-4.337a.684.684,0,0,0-.691.691V18.982a.684.684,0,0,0,.691.691h13.4a.684.684,0,0,0,.691-.691v-3.37a.684.684,0,0,0-.691-.691M133.628,1.027c-.221-.47-.387-.691-.884-.691H128.1c-.5,0-.663.221-.856.691-.221.469-6.3,17.015-6.546,17.679-.249.608.027.967.5.967h4.475c.828,0,.967-.276,1.243-.994.055-.138.249-.691.525-1.574h5.966c.276.884.469,1.436.525,1.574.3.718.414.994,1.243.994h4.5c.47,0,.718-.359.5-.967-.248-.608-6.325-17.209-6.546-17.679M128.96,12.352c.5-1.492.994-3.066,1.464-4.586.5,1.519.994,3.094,1.464,4.586ZM160.333.337h-4.627a.71.71,0,0,0-.742.691V10.17s-5.784-8.066-6.407-8.839S147.607.337,146.9.337h-3.411a.729.729,0,0,0-.742.691V18.982a.711.711,0,0,0,.742.691h4.657a.729.729,0,0,0,.741-.691V9.673l6.645,9.309a1.571,1.571,0,0,0,1.513.691h3.293a.711.711,0,0,0,.742-.691V1.027a.711.711,0,0,0-.742-.691" transform="translate(436.997 347.997)" fill="#fff"/>
    </g>
    <g id="Grupo_2423" data-name="Grupo 2423" transform="translate(262 1707.719)">
      <g id="Grupo_2422" data-name="Grupo 2422" transform="translate(0 0)" clip-path="url(#clip-path)">
        <path id="Trazado_83357" data-name="Trazado 83357" d="M54.457,3.18c0-1.277-.826-2.189-2.794-2.189H47.774V7.808h2.19V5.427H51l1.258,2.381H54.64L53.132,5.129a2.024,2.024,0,0,0,1.325-1.95m-3.3.874h-1.19V2.431h1.19c.7,0,1,.3,1,.788,0,.508-.307.835-1,.835M60.749.8c-2.419,0-3.966,1.392-3.966,3.6S58.33,8,60.749,8s3.965-1.392,3.965-3.6S63.169.8,60.749.8m0,5.559c-1.037,0-1.69-.749-1.69-1.959s.653-1.959,1.69-1.959,1.689.749,1.689,1.959-.653,1.959-1.689,1.959M3.639.991H0V7.808H3.61a3.422,3.422,0,0,0,3.745-3.5c0-2.035-1.43-3.322-3.716-3.322M3.38,6.311H2.19V2.489H3.418A1.633,1.633,0,0,1,5.07,4.342,1.738,1.738,0,0,1,3.38,6.311M69.653.991h-2.19V7.808h5.483V6.08H69.653ZM12.3,5.072h3.475V3.622H12.3v-1.1h3.639V.991H10.114V7.808h5.9V6.282H12.3ZM21.86,2.345a3.216,3.216,0,0,1,2.208.835l1.238-1.354A5.14,5.14,0,0,0,22,.8c-2.016,0-3.226.806-3.226,2.141,0,1.21.739,1.9,2.228,2.151l1.354.211c.615.105.8.23.8.538,0,.364-.423.567-1.2.567a3.126,3.126,0,0,1-2.295-1.018l-1.45,1.3A5.028,5.028,0,0,0,21.85,8c2.141,0,3.437-.873,3.437-2.362,0-1.209-.663-1.814-2.237-2.064l-1.306-.2c-.692-.125-.9-.26-.9-.557s.375-.471,1.018-.471m22.964.835C44.824,1.9,44,.991,42.029.991H38.141V7.808H40.33V5.427h1.037l1.258,2.381h2.382L43.5,5.129a2.024,2.024,0,0,0,1.325-1.95m-3.3.874H40.33V2.431h1.191c.7,0,1,.3,1,.788,0,.508-.307.835-1,.835M30.024.991,27.287,7.808h2.266l.471-1.354h2.707L33.2,7.808h2.265L32.731.991Zm.489,4.062L30.984,3.7a11.5,11.5,0,0,0,.384-1.316h.019c.1.432.268.98.384,1.316l.471,1.354ZM149.379,6.3c-1.057,0-1.69-.711-1.69-1.892s.624-1.92,1.642-1.92a1.375,1.375,0,0,1,1.478,1.258l2.247-.432C152.749,1.759,151.328.8,149.36.8c-2.353,0-3.947,1.459-3.947,3.629,0,2.227,1.479,3.571,3.908,3.571,1.949,0,3.322-.883,3.754-2.429l-2.247-.508a1.363,1.363,0,0,1-1.45,1.239M185.83,7.808h2.19V.991h-2.19Zm-9.47-5.117h2.2V7.808h2.189V2.691h2.2V.991H176.36Zm-4.891,1.478V5.1h-.029a7.527,7.527,0,0,0-.48-.864L168.742.991h-2.324V7.808h2.006V3.689h.029a6.546,6.546,0,0,0,.471.845l2.343,3.274h2.209V.991h-2.007Zm23.456-1.8a1.276,1.276,0,0,1,1.354,1l2.285-.413c-.327-1.363-1.7-2.16-3.62-2.16-2.439,0-3.966,1.507-3.966,3.658A3.231,3.231,0,0,0,194.378,8a2.6,2.6,0,0,0,2.487-1.21l.067,1.018h1.6V3.881h-3.851V5.293H196.5v.086c-.029.538-.653,1.057-1.555,1.057-1.094,0-1.68-.739-1.68-2.007,0-1.287.586-2.055,1.661-2.055M205.241.8c-2.42,0-3.966,1.392-3.966,3.6S202.821,8,205.241,8s3.965-1.392,3.965-3.6S207.66.8,205.241.8m0,5.559c-1.037,0-1.69-.749-1.69-1.959s.653-1.959,1.69-1.959,1.689.749,1.689,1.959-.653,1.959-1.689,1.959M159.493.8c-2.42,0-3.966,1.392-3.966,3.6S157.073,8,159.493,8s3.965-1.392,3.965-3.6S161.913.8,159.493.8m0,5.559c-1.037,0-1.69-.749-1.69-1.959s.653-1.959,1.69-1.959,1.689.749,1.689,1.959-.653,1.959-1.689,1.959M109.983.8c-2.419,0-3.966,1.392-3.966,3.6S107.563,8,109.983,8s3.965-1.392,3.965-3.6S112.4.8,109.983.8m0,5.559c-1.037,0-1.69-.749-1.69-1.959s.653-1.959,1.69-1.959,1.689.749,1.689,1.959-.653,1.959-1.689,1.959M99.091,4.506a5.3,5.3,0,0,0-.211.921h-.019a4.8,4.8,0,0,0-.192-.9L97.6.991H94.492V7.808h1.863V3.737A7.7,7.7,0,0,0,96.3,2.681h.029a5.947,5.947,0,0,0,.24.922l1.3,4.205h1.9l1.286-4.215a6.089,6.089,0,0,0,.249-.921h.039a8.551,8.551,0,0,0-.077,1.065V7.808h2.007V.991h-3.178ZM86.375.991,83.638,7.808H85.9l.471-1.354h2.707l.471,1.354h2.266L89.083.991Zm.489,4.062L87.335,3.7a11.429,11.429,0,0,0,.384-1.316h.019c.1.432.268.98.384,1.316l.471,1.354ZM77.933.991h-2.19V7.808h5.483V6.08H77.933Zm41.579,1.354a3.216,3.216,0,0,1,2.208.835l1.238-1.354A5.14,5.14,0,0,0,119.655.8c-2.016,0-3.226.806-3.226,2.141,0,1.21.739,1.9,2.227,2.151l1.355.211c.615.105.8.23.8.538,0,.364-.423.567-1.2.567a3.127,3.127,0,0,1-2.295-1.018l-1.45,1.3A5.028,5.028,0,0,0,119.5,8c2.141,0,3.437-.873,3.437-2.362,0-1.209-.663-1.814-2.237-2.064l-1.306-.2c-.692-.125-.9-.26-.9-.557s.375-.471,1.018-.471M134.383,0h-1.966V2.489h-2.872V4.306h2.872v2.64h1.966V4.306h2.93V2.489h-2.93Z" transform="translate(0 0)" fill="#eee"/>
      </g>
    </g>
  </g>
</svg>
