<svg xmlns="http://www.w3.org/2000/svg" width="103.072" height="20" viewBox="0 0 103.072 20">
  <g id="Logo_Nolan" data-name="Logo Nolan" transform="translate(-495 -348)">
    <path id="Trazado_1" data-name="Trazado 1" d="M.188,0C.122.068.059.137,0,.209v4.27c.069.084.142.165.22.243l14.45,14.45c.078.078.16.151.243.22h4.27c.071-.059.14-.122.208-.188V14.38L5.012,0Zm.961,11.481A3.949,3.949,0,0,0,0,11.653v7.568a3.955,3.955,0,1,0,1.149-7.739M16.855,0a3.953,3.953,0,0,0,2.535,7.483V0Z" transform="translate(495 347.999)" fill="#fff"/>
    <path id="Trazado_2" data-name="Trazado 2" d="M90.207,0A10.237,10.237,0,0,0,79.848,10a10.365,10.365,0,0,0,20.717,0A10.255,10.255,0,0,0,90.207,0m0,15.11A5.025,5.025,0,0,1,85.29,10,4.906,4.906,0,1,1,95.1,10a5,5,0,0,1-4.889,5.11m27.207-.193h-8.4V1.027a.678.678,0,0,0-.663-.691h-4.337a.684.684,0,0,0-.691.691V18.982a.684.684,0,0,0,.691.691h13.4a.684.684,0,0,0,.691-.691v-3.37a.684.684,0,0,0-.691-.691M133.628,1.027c-.221-.47-.387-.691-.884-.691H128.1c-.5,0-.663.221-.856.691-.221.469-6.3,17.015-6.546,17.679-.249.608.027.967.5.967h4.475c.828,0,.967-.276,1.243-.994.055-.138.249-.691.525-1.574h5.966c.276.884.469,1.436.525,1.574.3.718.414.994,1.243.994h4.5c.47,0,.718-.359.5-.967-.248-.608-6.325-17.209-6.546-17.679M128.96,12.353c.5-1.492.994-3.066,1.464-4.586.5,1.519.994,3.094,1.464,4.586ZM160.333.337h-4.627a.71.71,0,0,0-.742.691V10.17s-5.784-8.066-6.407-8.839S147.607.337,146.9.337h-3.411a.729.729,0,0,0-.742.691V18.982a.711.711,0,0,0,.742.691h4.657a.729.729,0,0,0,.741-.691V9.673l6.645,9.309a1.571,1.571,0,0,0,1.513.691h3.293a.711.711,0,0,0,.742-.691V1.027a.711.711,0,0,0-.742-.691" transform="translate(436.997 347.997)" fill="#fff"/>
  </g>
</svg>
