<svg xmlns="http://www.w3.org/2000/svg" width="73.553" height="69.973" viewBox="0 0 73.553 69.973">
  <g id="logo" transform="translate(-3.29 -2.721)">
    <g id="Grupo_1" data-name="Grupo 1" transform="translate(3.29 63.103)">
      <path id="Trazado_1" data-name="Trazado 1" d="M15.144,332.826a2.531,2.531,0,0,1-.334,1.368,2.358,2.358,0,0,1-.87.824,3.794,3.794,0,0,1-1.236.406,9.048,9.048,0,0,1-1.42.111H3.892a.538.538,0,0,1-.6-.615v-8.269a.532.532,0,0,1,.6-.6H11.18a9.524,9.524,0,0,1,1.557.118,3.426,3.426,0,0,1,1.217.425,2.133,2.133,0,0,1,.792.831,2.837,2.837,0,0,1,.281,1.348,2.661,2.661,0,0,1-.255,1.2,1.974,1.974,0,0,1-.949.85,2.151,2.151,0,0,1,.962.674A2.1,2.1,0,0,1,15.144,332.826Zm-1.779.053a2.257,2.257,0,0,0-.079-.641.811.811,0,0,0-.314-.432,1.58,1.58,0,0,0-.661-.242,6.908,6.908,0,0,0-1.106-.072H5.03v2.63h6.359a5.928,5.928,0,0,0,1.034-.072,1.5,1.5,0,0,0,.6-.222.694.694,0,0,0,.275-.386A2.121,2.121,0,0,0,13.365,332.879Zm-8.3-2.813H11.3a7.618,7.618,0,0,0,.981-.052,1.759,1.759,0,0,0,.635-.19.749.749,0,0,0,.34-.393,1.914,1.914,0,0,0,.1-.674,1.96,1.96,0,0,0-.079-.589.783.783,0,0,0-.294-.405,1.5,1.5,0,0,0-.608-.229,5.78,5.78,0,0,0-1.007-.072H5.069Z" transform="translate(-3.29 -325.997)" fill="#1b4381"/>
      <path id="Trazado_2" data-name="Trazado 2" d="M75.272,335.307q-3.873,0-3.873-2.434v-6.49a.51.51,0,0,1,.223-.5,1.4,1.4,0,0,1,.641-.118,1.436,1.436,0,0,1,.654.118.51.51,0,0,1,.222.5v6.49a.855.855,0,0,0,.517.72,3.466,3.466,0,0,0,1.668.3h6.411q.314,0,.406.176a1.16,1.16,0,0,1,.091.517,1.24,1.24,0,0,1-.091.536q-.092.183-.406.183Z" transform="translate(-58.669 -325.769)" fill="#1b4381"/>
      <path id="Trazado_3" data-name="Trazado 3" d="M135.683,335.307q-3.873,0-3.873-2.434v-6.49a.51.51,0,0,1,.222-.5,1.4,1.4,0,0,1,.641-.118,1.436,1.436,0,0,1,.654.118.51.51,0,0,1,.222.5v6.49a.855.855,0,0,0,.517.72,3.467,3.467,0,0,0,1.668.3h3.925a3.466,3.466,0,0,0,1.668-.3.855.855,0,0,0,.517-.72v-6.49a.51.51,0,0,1,.222-.5,1.436,1.436,0,0,1,.654-.118,1.4,1.4,0,0,1,.641.118.51.51,0,0,1,.222.5v6.49q0,2.434-3.873,2.434Z" transform="translate(-107.788 -325.769)" fill="#1b4381"/>
      <path id="Trazado_4" data-name="Trazado 4" d="M202.849,329.668l6.9-3.716a1.253,1.253,0,0,1,.4-.144,4.088,4.088,0,0,1,.661-.039.832.832,0,0,1,.5.15.52.52,0,0,1,.209.452.654.654,0,0,1-.419.6l-6.987,3.52,7.222,3.663a.655.655,0,0,1,.419.6.519.519,0,0,1-.21.451.829.829,0,0,1-.5.151,4.015,4.015,0,0,1-.661-.039,1.257,1.257,0,0,1-.4-.144l-7.131-3.781v3.349a.51.51,0,0,1-.222.5,1.436,1.436,0,0,1-.654.118,1.4,1.4,0,0,1-.641-.118.51.51,0,0,1-.223-.5v-8.361a.51.51,0,0,1,.223-.5,1.4,1.4,0,0,1,.641-.118,1.436,1.436,0,0,1,.654.118.511.511,0,0,1,.222.5Z" transform="translate(-164.134 -325.769)" fill="#1b4381"/>
      <path id="Trazado_5" data-name="Trazado 5" d="M261.5,331.571V333.1a.855.855,0,0,0,.523.72,3.508,3.508,0,0,0,1.675.3h6.254a.43.43,0,0,1,.412.176,1.464,1.464,0,0,1,0,1.053.424.424,0,0,1-.412.183h-6.307q-3.873,0-3.873-2.434v-4.619q0-2.434,3.873-2.433h1.95a.417.417,0,0,1,.4.177,1.483,1.483,0,0,1,0,1.06.416.416,0,0,1-.4.177h-1.9a3.582,3.582,0,0,0-1.675.294.849.849,0,0,0-.523.726v1.675h8.491a.43.43,0,0,1,.412.177,1.482,1.482,0,0,1,0,1.06.431.431,0,0,1-.412.177Z" transform="translate(-211.831 -325.997)" fill="#1b4381"/>
      <path id="Trazado_6" data-name="Trazado 6" d="M307.995,326.816a.711.711,0,0,1-.275-.524.448.448,0,0,1,.222-.366,1.7,1.7,0,0,1,1.158-.1.975.975,0,0,1,.294.19l4.2,4.082,4.187-4.082a.811.811,0,0,1,.288-.19,1.763,1.763,0,0,1,1.164.092.441.441,0,0,1,.222.373.711.711,0,0,1-.275.524l-4.723,4.566v3.363a.51.51,0,0,1-.223.5,1.436,1.436,0,0,1-.654.118,1.4,1.4,0,0,1-.641-.118.51.51,0,0,1-.222-.5v-3.363Z" transform="translate(-250.818 -325.769)" fill="#1b4381"/>
    </g>
    <path id="Trazado_7" data-name="Trazado 7" d="M75.354,61.31a19.73,19.73,0,0,0,38.664,5.546A18.946,18.946,0,1,1,94.691,41.587,19.727,19.727,0,0,0,75.354,61.31Z" transform="translate(-58.594 -31.601)" fill="#918982"/>
    <path id="Trazado_8" data-name="Trazado 8" d="M166.894,63.854s-.319.635-.941,1.7c-.311.536-.7,1.181-1.161,1.91s-.992,1.548-1.6,2.421-1.28,1.811-2.019,2.785c-.365.49-.764.975-1.16,1.481s-.819,1.008-1.255,1.515-.874,1.027-1.338,1.535c-.23.256-.461.515-.7.769l-.725.761c-.48.516-.993,1.006-1.5,1.514s-1.035.989-1.558,1.48c-1.063.967-2.16,1.9-3.284,2.772l-.84.65c-.28.215-.57.414-.852.62l-.847.608-.858.569c-.285.186-.563.379-.847.556l-.853.514c-.283.167-.559.341-.841.5l-.839.455-.819.44-.814.393-.789.379c-.258.124-.523.224-.776.334l-.748.313c-.244.1-.481.206-.721.286l-1.351.484c-.106.037-.21.077-.314.11l-.309.092c-.2.06-.4.119-.587.166a7.959,7.959,0,0,1-1.058.2,6.42,6.42,0,0,1-1.551-.085,3.588,3.588,0,0,1-.417-.1c-.095-.027-.144-.048-.144-.048a1.259,1.259,0,0,1-.438-2.017l.066-.07s.036-.039.108-.1a3.631,3.631,0,0,1,.32-.257,5.67,5.67,0,0,1,1.247-.673,6.666,6.666,0,0,1,.91-.341c.335-.1.712-.164,1.1-.295l1.24-.381c.22-.062.439-.147.666-.23l.694-.254c.235-.09.48-.168.722-.272l.74-.312.767-.321.777-.367.8-.379c.269-.13.533-.279.8-.42l.822-.433c.276-.148.547-.312.825-.469l.838-.481.833-.521c.278-.177.564-.347.841-.533l.835-.565c1.121-.754,2.214-1.59,3.311-2.428.538-.431,1.079-.862,1.608-1.3s1.055-.885,1.557-1.347l.759-.681.74-.689c.5-.451.969-.916,1.438-1.37s.914-.916,1.359-1.362.863-.9,1.269-1.338c.824-.873,1.581-1.721,2.268-2.514s1.309-1.53,1.847-2.194,1-1.251,1.378-1.735c.752-.974,1.157-1.546,1.157-1.546a.122.122,0,0,1,.208.126Z" transform="translate(-104.416 -49.563)" fill="#221887"/>
    <path id="Trazado_9" data-name="Trazado 9" d="M134.2,35.023s-.374.556-1.092,1.476c-.356.463-.8,1.013-1.331,1.634s-1.129,1.316-1.818,2.046-1.447,1.511-2.267,2.322c-.834.8-1.725,1.626-2.682,2.446S123.037,46.6,121.98,47.4s-2.166,1.582-3.306,2.317l-.854.553c-.288.179-.582.348-.872.522s-.578.351-.875.512l-.884.486c-1.177.644-2.37,1.221-3.542,1.746-.29.139-.587.254-.879.375l-.87.354c-.285.121-.577.218-.862.321l-.847.3c-.14.049-.277.1-.416.146l-.416.128-.814.249c-.531.174-1.058.3-1.562.423s-.986.253-1.453.336l-1.322.263c-.418.066-.811.127-1.175.168a5.92,5.92,0,0,1-1.01.027,5.74,5.74,0,0,1-1.43-.306,3.266,3.266,0,0,1-.375-.161,1.4,1.4,0,0,1-.128-.068,1.287,1.287,0,0,1-.153-2.06L98,53.976s.039-.033.114-.085a3.326,3.326,0,0,1,.332-.209,5.151,5.151,0,0,1,1.255-.489,7.478,7.478,0,0,1,.9-.194c.328-.048.688-.068,1.069-.114l1.212-.182c.429-.054.874-.149,1.339-.243s.953-.183,1.449-.315l.761-.187.39-.1c.13-.034.26-.075.392-.113l.8-.235c.269-.08.545-.154.816-.252l.828-.279c.279-.094.564-.182.843-.293,1.127-.416,2.283-.881,3.436-1.413l.867-.4c.291-.133.574-.286.862-.429l.864-.437.856-.458c1.145-.61,2.26-1.279,3.35-1.954,1.076-.7,2.139-1.385,3.137-2.1s1.948-1.426,2.842-2.115,1.72-1.367,2.468-2.012,1.432-1.241,2.026-1.782,1.1-1.027,1.518-1.428.736-.725.953-.947l.33-.341a.122.122,0,0,1,.189.152Z" transform="translate(-76.59 -26.11)" fill="#221887"/>
    <path id="Trazado_10" data-name="Trazado 10" d="M143.345,48.165s-.367.62-1.076,1.657c-.353.52-.794,1.143-1.316,1.847s-1.119,1.493-1.8,2.327-1.438,1.73-2.258,2.661-1.724,1.877-2.682,2.836l-.726.725-.752.72c-.5.489-1.036.952-1.565,1.431s-1.087.936-1.638,1.407l-.847.684c-.283.228-.564.46-.857.677-.581.44-1.154.892-1.756,1.3l-.891.627c-.3.2-.6.4-.905.6s-.6.4-.9.586l-.913.554c-.6.376-1.218.708-1.821,1.045s-1.213.638-1.807.938-1.2.556-1.775.82-1.158.486-1.717.707c-.28.109-.554.22-.825.321l-.81.272c-1.052.376-2.048.631-2.925.878-.218.066-.436.1-.643.154s-.409.093-.6.126a7.367,7.367,0,0,1-1.08.121A6.55,6.55,0,0,1,106.893,74a3.632,3.632,0,0,1-.414-.129c-.094-.033-.143-.057-.143-.057a1.256,1.256,0,0,1-.3-2.046l.066-.06s.04-.037.117-.094a3.674,3.674,0,0,1,.342-.237,5.862,5.862,0,0,1,1.314-.594,7.8,7.8,0,0,1,.949-.278c.349-.08.735-.124,1.138-.217.807-.191,1.724-.38,2.7-.682l.755-.215.774-.259c.525-.178,1.073-.347,1.621-.57s1.124-.416,1.69-.676,1.162-.484,1.743-.775,1.186-.554,1.775-.875l.9-.469c.3-.159.592-.334.891-.5s.6-.337.9-.513l.886-.544c.6-.357,1.177-.746,1.767-1.123.3-.186.583-.387.871-.586l.865-.594c.564-.412,1.133-.815,1.684-1.234s1.1-.836,1.625-1.264l.793-.631.769-.639c.513-.418,1-.853,1.481-1.269s.939-.843,1.389-1.253c.9-.823,1.733-1.616,2.484-2.37s1.438-1.45,2.031-2.081,1.1-1.192,1.518-1.655c.83-.931,1.279-1.483,1.279-1.483a.122.122,0,0,1,.2.139Z" transform="translate(-83.214 -36.8)" fill="#918982"/>
    <path id="Trazado_11" data-name="Trazado 11" d="M203.285,77.513a.121.121,0,0,0-.23-.059s-.253.524-.737,1.423c-.246.447-.54.992-.895,1.606s-.766,1.3-1.22,2.042-.967,1.533-1.526,2.355c-.277.412-.569.831-.865,1.26s-.607.859-.936,1.288l-.491.652c-.166.218-.34.432-.511.651-.339.438-.694.873-1.052,1.309s-.735.861-1.1,1.295c-.384.42-.763.847-1.156,1.259l-.594.613q-.294.309-.6.6l-.6.593c-.2.2-.411.381-.614.571l-.613.561-.625.532c-.209.174-.408.357-.62.52l-.626.491c-.407.333-.835.623-1.24.923s-.819.566-1.216.832-.8.5-1.181.732l-.566.339-.559.3-.535.286-.259.138-.259.12-.966.451c-.3.143-.6.237-.861.361a4.935,4.935,0,0,0-.694.4,4.1,4.1,0,0,0-.912.761,2.905,2.905,0,0,0-.221.278,1.293,1.293,0,0,0-.072.108l-.053.093a1.359,1.359,0,0,0-.095.208,1.339,1.339,0,0,0,.813,1.711,1.217,1.217,0,0,0,.129.035,2.751,2.751,0,0,0,.367.064,4.682,4.682,0,0,0,1.318-.052,5.21,5.21,0,0,0,.861-.272c.153-.061.307-.134.467-.208s.329-.148.494-.241l1.061-.568.283-.152.282-.17.582-.353.605-.368.606-.413c.411-.281.838-.566,1.252-.892s.857-.637,1.274-1,.859-.709,1.273-1.1l.635-.583c.215-.194.414-.406.624-.61l.625-.621.607-.648c.2-.219.41-.431.606-.657l.59-.677c.4-.445.764-.925,1.143-1.391s.726-.955,1.084-1.43c.342-.488.7-.964,1.02-1.454.663-.97,1.274-1.949,1.833-2.912.288-.477.545-.961.81-1.425s.505-.93.734-1.384c.459-.909.873-1.776,1.237-2.584.027-.06.052-.118.079-.177a24.365,24.365,0,0,1,1.445,8.312c-.013,13.483-9.69,24.405-24.438,24.391a24.714,24.714,0,0,1-3.215-.214,26.218,26.218,0,0,0,31.187-25.7A26.08,26.08,0,0,0,203.285,77.513Z" transform="translate(-139.669 -60.708)" fill="#1b4381"/>
    <path id="Trazado_12" data-name="Trazado 12" d="M100.427,5.984a.121.121,0,0,0-.082-.034A26.207,26.207,0,0,0,61.535,28.9c0,.512.016,1.02.044,1.525A24.416,24.416,0,0,1,97.259,8.792c-.328.284-.676.581-1.047.891-.626.528-1.322,1.078-2.066,1.645s-1.533,1.155-2.376,1.725-1.721,1.14-2.622,1.7c-.458.269-.909.555-1.38.81l-.7.393c-.235.129-.475.249-.712.374-.95.5-1.912.962-2.871,1.387-.477.217-.963.4-1.435.6s-.954.353-1.418.527l-1.386.454-1.337.385c-.875.222-1.7.421-2.475.56l-.564.111-.542.08-1,.146c-.315.033-.611.052-.882.092a5.32,5.32,0,0,0-.738.177,3.772,3.772,0,0,0-1.029.481,2.692,2.692,0,0,0-.272.207,1.222,1.222,0,0,0-.093.084l-.066.069a1.363,1.363,0,0,0-.1.118,1.378,1.378,0,0,0,.268,1.93,1.163,1.163,0,0,0,.108.069,2.583,2.583,0,0,0,.316.163,4.207,4.207,0,0,0,1.2.314,4.057,4.057,0,0,0,.846-.01c.305-.033.632-.093.982-.145l1.1-.227.6-.125.618-.159c.845-.2,1.742-.483,2.683-.792.465-.169.945-.337,1.43-.519s.969-.4,1.463-.609c.487-.228.985-.45,1.48-.692s.992-.494,1.482-.767.989-.536,1.47-.834l.727-.438c.242-.147.476-.309.713-.462s.475-.308.708-.468l.693-.485c.465-.316.906-.661,1.354-.989s.874-.675,1.294-1.018.83-.688,1.22-1.041l.586-.517.563-.52c.374-.34.726-.687,1.07-1.021.678-.681,1.307-1.335,1.867-1.956s1.057-1.2,1.49-1.726.8-.988,1.084-1.381c.583-.777.883-1.249.883-1.249A.123.123,0,0,0,100.427,5.984Z" transform="translate(-47.358)" fill="#1b4381"/>
    <g id="Grupo_2" data-name="Grupo 2" transform="translate(73.082 68.913)">
      <path id="Trazado_13" data-name="Trazado 13" d="M378.564,356.856a1.88,1.88,0,1,0,1.881,1.881A1.883,1.883,0,0,0,378.564,356.856Zm0,3.243a1.363,1.363,0,1,1,1.363-1.363A1.364,1.364,0,0,1,378.564,360.1Zm.683-1.607a.611.611,0,0,0-.7-.615h-.635v1.72h.364v-.479h.321l.35.481h.452l-.427-.586A.585.585,0,0,0,379.248,358.492Zm-.7.261h-.271v-.512h.271c.331,0,.331.189.331.251S378.883,358.753,378.552,358.753Z" transform="translate(-376.684 -356.856)" fill="#1b4381"/>
    </g>
  </g>
</svg>
