<svg xmlns="http://www.w3.org/2000/svg" width="313.542" height="96.795" viewBox="0 0 313.542 96.795">
  <g id="Grupo_6" data-name="Grupo 6" transform="translate(-483.229 -140.75)">
    <g id="Grupo_4" data-name="Grupo 4">
      <g id="Grupo_3" data-name="Grupo 3">
        <g id="Grupo_2" data-name="Grupo 2">
          <g id="Grupo_1" data-name="Grupo 1">
            <path id="Trazado_1" data-name="Trazado 1" d="M603.587,165.04a3.947,3.947,0,0,1,1.128,2.918v38.336a3.859,3.859,0,0,1-1.194,2.885,4.2,4.2,0,0,1-3.051,1.161,3.949,3.949,0,0,1-2.852-1.161,3.858,3.858,0,0,1-1.193-2.885V190.84H575.267v15.454a3.764,3.764,0,0,1-1.26,2.885,4.18,4.18,0,0,1-2.919,1.161,4,4,0,0,1-2.951-1.161,3.914,3.914,0,0,1-1.161-2.885V167.958a3.862,3.862,0,0,1,1.194-2.885,4.2,4.2,0,0,1,3.051-1.161,3.953,3.953,0,0,1,2.852,1.161,3.862,3.862,0,0,1,1.194,2.885v15.255h21.158V167.958a3.76,3.76,0,0,1,1.26-2.885,4.177,4.177,0,0,1,2.918-1.161A4.038,4.038,0,0,1,603.587,165.04Z" fill="#fff"/>
            <path id="Trazado_2" data-name="Trazado 2" d="M641.724,201.318a16.868,16.868,0,0,1-6.533,6.533,19.143,19.143,0,0,1-18.273,0,16.917,16.917,0,0,1-6.5-6.533,20.162,20.162,0,0,1,0-19.036,17.168,17.168,0,0,1,6.5-6.566,18.907,18.907,0,0,1,18.273,0,17.115,17.115,0,0,1,6.533,6.566,20.162,20.162,0,0,1,0,19.036ZM634.793,186a10.02,10.02,0,0,0-3.648-3.947,9.944,9.944,0,0,0-10.148,0A10.012,10.012,0,0,0,617.349,186a12.159,12.159,0,0,0-1.359,5.8,11.96,11.96,0,0,0,1.359,5.77A10.061,10.061,0,0,0,621,201.484a9.944,9.944,0,0,0,10.148,0,10.069,10.069,0,0,0,3.648-3.914,11.961,11.961,0,0,0,1.359-5.77A12.16,12.16,0,0,0,634.793,186Z" fill="#fff"/>
            <path id="Trazado_3" data-name="Trazado 3" d="M681.661,174.489a3.955,3.955,0,0,1,1.127,2.919v29.514q0,8.091-5.007,11.972t-12.7,3.88a31.25,31.25,0,0,1-5.471-.663,24.156,24.156,0,0,1-4.942-1.327q-3.249-1.394-3.249-3.847a3.393,3.393,0,0,1,.2-1.061,4.107,4.107,0,0,1,1.359-2.222,3.289,3.289,0,0,1,2.089-.763,3.983,3.983,0,0,1,1.261.2q.264.066,3.283,1.227a15.4,15.4,0,0,0,5.471,1.161q4.908,0,7.329-1.957a6.713,6.713,0,0,0,2.421-5.538V204.8a13.225,13.225,0,0,1-4.41,3.714,12.741,12.741,0,0,1-6.334,1.658,15.783,15.783,0,0,1-8.457-2.354,16.486,16.486,0,0,1-6-6.533,20.136,20.136,0,0,1-2.189-9.485,20.583,20.583,0,0,1,2.156-9.518,16.364,16.364,0,0,1,5.9-6.566,15.33,15.33,0,0,1,8.323-2.354,14.435,14.435,0,0,1,6.3,1.393,14.824,14.824,0,0,1,4.709,3.382v-.729a3.972,3.972,0,0,1,1.128-2.885,3.806,3.806,0,0,1,2.852-1.161A3.871,3.871,0,0,1,681.661,174.489Zm-9.319,25.237a11.443,11.443,0,0,0,2.819-7.926,11.57,11.57,0,0,0-2.819-7.959,9.258,9.258,0,0,0-7.263-3.183,9.157,9.157,0,0,0-7.229,3.183,11.653,11.653,0,0,0-2.786,7.959,11.525,11.525,0,0,0,2.786,7.926,9.2,9.2,0,0,0,7.229,3.15A9.3,9.3,0,0,0,672.342,199.726Z" fill="#fff"/>
            <path id="Trazado_4" data-name="Trazado 4" d="M719.674,174.489a3.955,3.955,0,0,1,1.128,2.919v28.055a3.978,3.978,0,0,1-1.128,2.885,3.809,3.809,0,0,1-2.852,1.161A3.748,3.748,0,0,1,714,208.381a4.16,4.16,0,0,1-1.161-2.852,14.384,14.384,0,0,1-10.413,4.643,15.17,15.17,0,0,1-8.291-2.354,16.5,16.5,0,0,1-5.87-6.533,20.388,20.388,0,0,1-2.155-9.485,20.859,20.859,0,0,1,2.122-9.518,16.316,16.316,0,0,1,5.8-6.566,14.773,14.773,0,0,1,8.124-2.354,15.36,15.36,0,0,1,5.97,1.161,15.685,15.685,0,0,1,4.709,2.951v-.066a3.975,3.975,0,0,1,1.127-2.885,3.807,3.807,0,0,1,2.852-1.161A3.869,3.869,0,0,1,719.674,174.489Zm-9.219,25.237a11.7,11.7,0,0,0,2.719-7.926,11.827,11.827,0,0,0-2.719-7.959,9.282,9.282,0,0,0-13.994,0,13.021,13.021,0,0,0-.034,15.885,8.757,8.757,0,0,0,7,3.15A8.855,8.855,0,0,0,710.455,199.726Z" fill="#fff"/>
            <path id="Trazado_5" data-name="Trazado 5" d="M745.915,174.489a3.367,3.367,0,0,1,1.36,2.653,4.11,4.11,0,0,1-1.062,3.084,3.5,3.5,0,0,1-2.52,1.028,6.6,6.6,0,0,1-2.255-.464c-.133-.043-.431-.132-.895-.265a5.4,5.4,0,0,0-1.493-.2,5.9,5.9,0,0,0-3.316,1.061,7.746,7.746,0,0,0-2.62,3.217,11.832,11.832,0,0,0-1.028,5.14v15.719a3.977,3.977,0,0,1-1.127,2.885,4.083,4.083,0,0,1-5.7,0,3.97,3.97,0,0,1-1.128-2.885V178.071a3.973,3.973,0,0,1,1.128-2.885,4.083,4.083,0,0,1,5.7,0,3.981,3.981,0,0,1,1.127,2.885v.862a10.052,10.052,0,0,1,4.378-4.145,13.461,13.461,0,0,1,6.1-1.426A5.077,5.077,0,0,1,745.915,174.489Z" fill="#fff"/>
            <path id="Trazado_6" data-name="Trazado 6" d="M751.529,168.984a3.111,3.111,0,0,1-.929-2.586v-1.261a3.008,3.008,0,0,1,.995-2.586,7.453,7.453,0,0,1,6.434,0,3.12,3.12,0,0,1,.928,2.586V166.4a3.05,3.05,0,0,1-.961,2.62,5.8,5.8,0,0,1-3.284.7A5.261,5.261,0,0,1,751.529,168.984Zm6.1,39.364a4.083,4.083,0,0,1-5.7,0,3.97,3.97,0,0,1-1.128-2.885V178.071a3.973,3.973,0,0,1,1.128-2.885,4.083,4.083,0,0,1,5.7,0,3.981,3.981,0,0,1,1.127,2.885v27.392A3.977,3.977,0,0,1,757.631,208.348Z" fill="#fff"/>
            <path id="Trazado_7" data-name="Trazado 7" d="M795.644,174.489a3.954,3.954,0,0,1,1.127,2.919v28.055a3.977,3.977,0,0,1-1.127,2.885,3.809,3.809,0,0,1-2.852,1.161,3.751,3.751,0,0,1-2.819-1.128,4.164,4.164,0,0,1-1.16-2.852,14.384,14.384,0,0,1-10.413,4.643,15.17,15.17,0,0,1-8.291-2.354,16.5,16.5,0,0,1-5.87-6.533,20.388,20.388,0,0,1-2.155-9.485,20.846,20.846,0,0,1,2.122-9.518,16.313,16.313,0,0,1,5.8-6.566,14.779,14.779,0,0,1,8.125-2.354,15.356,15.356,0,0,1,5.969,1.161,15.69,15.69,0,0,1,4.71,2.951v-.066a3.975,3.975,0,0,1,1.127-2.885,3.806,3.806,0,0,1,2.852-1.161A3.869,3.869,0,0,1,795.644,174.489Zm-9.219,25.237a11.7,11.7,0,0,0,2.719-7.926,11.832,11.832,0,0,0-2.719-7.959,9.283,9.283,0,0,0-13.995,0,13.023,13.023,0,0,0-.033,15.885,8.757,8.757,0,0,0,7,3.15A8.856,8.856,0,0,0,786.425,199.726Z" fill="#fff"/>
          </g>
        </g>
      </g>
    </g>
    <path id="Trazado_8" data-name="Trazado 8" d="M552.211,210.3H532.369a7.242,7.242,0,0,1-5.415-2.432l-5.995-6.75-5.993,6.749a7.243,7.243,0,0,1-5.416,2.433H489.7a6.442,6.442,0,0,1-6.474-6.4V168.68a6.377,6.377,0,0,1,2.77-5.247L517.253,141.9a6.562,6.562,0,0,1,7.408,0l31.254,21.538a6.378,6.378,0,0,1,2.771,5.247v35.227A6.443,6.443,0,0,1,552.211,210.3Zm-16.894-6.561h14.439a2.368,2.368,0,0,0,2.368-2.368V170.033a2.369,2.369,0,0,0-1.024-1.95l-28.817-19.858a2.369,2.369,0,0,0-2.689,0l-28.781,19.858a2.37,2.37,0,0,0-1.023,1.95v31.341a2.368,2.368,0,0,0,2.369,2.368H506.6a7.243,7.243,0,0,0,5.415-2.433l16.553-18.641a9.631,9.631,0,0,0,2.136-6.053c.019-5-4.745-9.746-9.749-9.746a9.354,9.354,0,0,0-9.749,9.707,9.637,9.637,0,0,0,2.136,6.092L516.3,186a3.266,3.266,0,0,1-.014,4.355h0a3.268,3.268,0,0,1-4.862,0l-3.129-3.49a16.311,16.311,0,1,1,25.324,0l-.092.109-8.181,9.213,4.556,5.129A7.24,7.24,0,0,0,535.317,203.742Z" fill="#fff"/>
    <g id="Grupo_5" data-name="Grupo 5">
      <path id="Trazado_9" data-name="Trazado 9" d="M697.083,218.831a1.207,1.207,0,0,1,.345.892v12.53a1.214,1.214,0,0,1-.345.882,1.164,1.164,0,0,1-.872.355,1.147,1.147,0,0,1-.862-.345,1.269,1.269,0,0,1-.354-.871,4.4,4.4,0,0,1-3.184,1.419,4.635,4.635,0,0,1-2.534-.72,5.048,5.048,0,0,1-1.794-2,6.225,6.225,0,0,1-.659-2.9,6.384,6.384,0,0,1,.648-2.91,4.987,4.987,0,0,1,1.775-2.007,4.511,4.511,0,0,1,2.483-.72,4.69,4.69,0,0,1,1.825.355,4.791,4.791,0,0,1,1.44.9v-3.974a1.216,1.216,0,0,1,.344-.882,1.166,1.166,0,0,1,.872-.355A1.182,1.182,0,0,1,697.083,218.831ZM694.265,230.5a3.573,3.573,0,0,0,.831-2.422,3.613,3.613,0,0,0-.831-2.433,2.836,2.836,0,0,0-4.278,0,3.978,3.978,0,0,0-.011,4.855,2.677,2.677,0,0,0,2.139.964A2.707,2.707,0,0,0,694.265,230.5Z" fill="#fff"/>
      <path id="Trazado_10" data-name="Trazado 10" d="M708.7,223a1.214,1.214,0,0,1,.345.882v5.15a4.7,4.7,0,0,1-1.207,3.426,5.378,5.378,0,0,1-6.863,0,4.724,4.724,0,0,1-1.2-3.426v-5.15a1.213,1.213,0,0,1,.345-.882,1.247,1.247,0,0,1,1.743,0,1.214,1.214,0,0,1,.345.882v5.15a2.643,2.643,0,0,0,.548,1.834,2.115,2.115,0,0,0,1.642.6,2.144,2.144,0,0,0,1.662-.6,2.643,2.643,0,0,0,.548-1.834v-5.15a1.217,1.217,0,0,1,.344-.882,1.248,1.248,0,0,1,1.744,0Z" fill="#fff"/>
      <path id="Trazado_11" data-name="Trazado 11" d="M713.353,233.135a1.194,1.194,0,0,1-.882.355,1.136,1.136,0,0,1-.851-.355,1.214,1.214,0,0,1-.345-.882v-12.53a1.213,1.213,0,0,1,1.237-1.237,1.141,1.141,0,0,1,.851.355,1.217,1.217,0,0,1,.345.882v12.53A1.194,1.194,0,0,1,713.353,233.135Z" fill="#fff"/>
      <path id="Trazado_12" data-name="Trazado 12" d="M723.238,222.977a1.613,1.613,0,0,1,1.054,1.43,1.223,1.223,0,0,1-.264.78.836.836,0,0,1-.689.335,1.309,1.309,0,0,1-.527-.091,1.875,1.875,0,0,1-.4-.244,2.841,2.841,0,0,0-.375-.253,2.554,2.554,0,0,0-.6-.183,3.33,3.33,0,0,0-.639-.081,3.067,3.067,0,0,0-2.382.943,3.509,3.509,0,0,0-.862,2.464,3.471,3.471,0,0,0,.872,2.422,2.872,2.872,0,0,0,2.231.964,3.454,3.454,0,0,0,1.48-.244,2.617,2.617,0,0,0,.334-.213,2.346,2.346,0,0,1,.4-.233,1.1,1.1,0,0,1,.447-.081,1.024,1.024,0,0,1,.8.325,1.19,1.19,0,0,1,.295.831,1.176,1.176,0,0,1-.568.912,4.426,4.426,0,0,1-1.5.679,7.548,7.548,0,0,1-1.987.254,5.13,5.13,0,0,1-2.747-.73,4.913,4.913,0,0,1-1.835-2.017,6.282,6.282,0,0,1-.649-2.869,6.132,6.132,0,0,1,.679-2.92,5,5,0,0,1,1.9-2,5.31,5.31,0,0,1,2.758-.72A6.146,6.146,0,0,1,723.238,222.977Z" fill="#fff"/>
      <path id="Trazado_13" data-name="Trazado 13" d="M734.916,228.6a1.293,1.293,0,0,1-.852.3h-6.69a3.048,3.048,0,0,0,1.115,1.875,3.117,3.117,0,0,0,1.966.68,4.371,4.371,0,0,0,1.3-.152,3.41,3.41,0,0,0,.74-.325c.183-.115.307-.193.375-.233a1.542,1.542,0,0,1,.689-.183,1,1,0,0,1,.731.3.973.973,0,0,1,.3.709,1.269,1.269,0,0,1-.568.994,4.847,4.847,0,0,1-1.521.79,5.919,5.919,0,0,1-1.926.325,5.979,5.979,0,0,1-2.97-.71,4.949,4.949,0,0,1-1.957-1.956,5.705,5.705,0,0,1-.689-2.809,6.212,6.212,0,0,1,.73-3.061,5.178,5.178,0,0,1,1.926-2.018,4.979,4.979,0,0,1,2.554-.7,4.734,4.734,0,0,1,2.525.73,5.47,5.47,0,0,1,1.9,1.967,5.284,5.284,0,0,1,.709,2.676A1.042,1.042,0,0,1,734.916,228.6Zm-7.522-1.724h5.312v-.142a2.1,2.1,0,0,0-.831-1.459,2.632,2.632,0,0,0-1.7-.609A2.516,2.516,0,0,0,727.394,226.88Z" fill="#fff"/>
      <path id="Trazado_14" data-name="Trazado 14" d="M750.264,223.667a6.363,6.363,0,0,1,.771,3.4v5.19a1.214,1.214,0,0,1-.345.882,1.248,1.248,0,0,1-1.744,0,1.214,1.214,0,0,1-.345-.882v-5.19a3.081,3.081,0,0,0-.435-1.754,1.72,1.72,0,0,0-1.531-.639,2.315,2.315,0,0,0-1.774.68,2.4,2.4,0,0,0-.639,1.713v5.19a1.217,1.217,0,0,1-.344.882,1.248,1.248,0,0,1-1.744,0,1.214,1.214,0,0,1-.345-.882v-12.53a1.217,1.217,0,0,1,.345-.882,1.248,1.248,0,0,1,1.744,0,1.22,1.22,0,0,1,.344.882V224.2a4.951,4.951,0,0,1,1.389-1.247,3.508,3.508,0,0,1,1.875-.517A3.018,3.018,0,0,1,750.264,223.667Z" fill="#fff"/>
      <path id="Trazado_15" data-name="Trazado 15" d="M762.754,230.986a5.159,5.159,0,0,1-2,2,5.849,5.849,0,0,1-5.586,0,5.174,5.174,0,0,1-1.987-2,6.163,6.163,0,0,1,0-5.819,5.255,5.255,0,0,1,1.987-2.007,5.777,5.777,0,0,1,5.586,0,5.239,5.239,0,0,1,2,2.007,6.163,6.163,0,0,1,0,5.819Zm-2.119-4.684a3.063,3.063,0,0,0-1.115-1.206,3.036,3.036,0,0,0-3.1,0A3.048,3.048,0,0,0,755.3,226.3a3.721,3.721,0,0,0-.416,1.775,3.653,3.653,0,0,0,.416,1.763,3.063,3.063,0,0,0,1.115,1.2,3.036,3.036,0,0,0,3.1,0,3.078,3.078,0,0,0,1.115-1.2,3.653,3.653,0,0,0,.416-1.763A3.721,3.721,0,0,0,760.635,226.3Z" fill="#fff"/>
      <path id="Trazado_16" data-name="Trazado 16" d="M774.757,222.785a1.21,1.21,0,0,1,.345.892V232.7a4.342,4.342,0,0,1-1.531,3.66,6.152,6.152,0,0,1-3.883,1.186,9.554,9.554,0,0,1-1.673-.2,7.376,7.376,0,0,1-1.51-.4q-.995-.426-.994-1.176a1.05,1.05,0,0,1,.061-.324,1.258,1.258,0,0,1,.416-.68,1,1,0,0,1,.638-.233,1.205,1.205,0,0,1,.386.061q.081.02,1,.375a4.726,4.726,0,0,0,1.673.355,3.522,3.522,0,0,0,2.24-.6,2.051,2.051,0,0,0,.74-1.693v-.973a4.041,4.041,0,0,1-1.348,1.135,3.888,3.888,0,0,1-1.936.507,4.819,4.819,0,0,1-2.585-.72,5.04,5.04,0,0,1-1.835-2,6.156,6.156,0,0,1-.669-2.9,6.287,6.287,0,0,1,.659-2.91,5,5,0,0,1,1.8-2.007,4.686,4.686,0,0,1,2.545-.72,4.414,4.414,0,0,1,1.926.426,4.521,4.521,0,0,1,1.439,1.034v-.223a1.215,1.215,0,0,1,.345-.882,1.162,1.162,0,0,1,.872-.355A1.182,1.182,0,0,1,774.757,222.785Zm-2.849,7.714a3.492,3.492,0,0,0,.862-2.422,3.531,3.531,0,0,0-.862-2.433,2.831,2.831,0,0,0-2.22-.974,2.8,2.8,0,0,0-2.21.974,3.557,3.557,0,0,0-.852,2.433,3.518,3.518,0,0,0,.852,2.422,2.81,2.81,0,0,0,2.21.964A2.842,2.842,0,0,0,771.908,230.5Z" fill="#fff"/>
      <path id="Trazado_17" data-name="Trazado 17" d="M786.679,222.785a1.207,1.207,0,0,1,.345.892v8.576a1.214,1.214,0,0,1-.345.882,1.164,1.164,0,0,1-.872.355,1.147,1.147,0,0,1-.862-.345,1.275,1.275,0,0,1-.355-.871,4.4,4.4,0,0,1-3.183,1.419,4.635,4.635,0,0,1-2.534-.72,5.05,5.05,0,0,1-1.795-2,6.236,6.236,0,0,1-.659-2.9,6.372,6.372,0,0,1,.649-2.91,4.992,4.992,0,0,1,1.774-2.007,4.514,4.514,0,0,1,2.484-.72,4.69,4.69,0,0,1,1.825.355,4.774,4.774,0,0,1,1.439.9v-.02a1.215,1.215,0,0,1,.345-.882,1.162,1.162,0,0,1,.872-.355A1.182,1.182,0,0,1,786.679,222.785Zm-2.818,7.714a3.573,3.573,0,0,0,.831-2.422,3.613,3.613,0,0,0-.831-2.433,2.837,2.837,0,0,0-4.279,0,3.98,3.98,0,0,0-.01,4.855,2.676,2.676,0,0,0,2.139.964A2.707,2.707,0,0,0,783.861,230.5Z" fill="#fff"/>
      <path id="Trazado_18" data-name="Trazado 18" d="M795.711,222.785a1.028,1.028,0,0,1,.416.811,1.254,1.254,0,0,1-.324.942,1.071,1.071,0,0,1-.771.315,2.007,2.007,0,0,1-.689-.142c-.041-.014-.132-.041-.274-.081a1.637,1.637,0,0,0-.456-.061,1.8,1.8,0,0,0-1.014.324,2.383,2.383,0,0,0-.8.984,3.612,3.612,0,0,0-.314,1.571v4.805a1.213,1.213,0,0,1-.345.882,1.248,1.248,0,0,1-1.744,0,1.217,1.217,0,0,1-.344-.882V223.88A1.217,1.217,0,0,1,789.4,223a1.248,1.248,0,0,1,1.744,0,1.213,1.213,0,0,1,.345.882v.263a3.076,3.076,0,0,1,1.338-1.267,4.109,4.109,0,0,1,1.866-.436A1.548,1.548,0,0,1,795.711,222.785Z" fill="#fff"/>
    </g>
  </g>
</svg>
