<?xml version="1.0" standalone="no"?>
<!DOCTYPE svg PUBLIC "-//W3C//DTD SVG 1.1//EN" "http://www.w3.org/Graphics/SVG/1.1/DTD/svg11.dtd">
<svg xmlns="http://www.w3.org/2000/svg">
<metadata>Generated by Fontastic.me</metadata>
<defs>
<font id="thrue" horiz-adv-x="512">
<font-face font-family="thrue" units-per-em="512" ascent="480" descent="-32"/>
<missing-glyph horiz-adv-x="512" />

<glyph glyph-name="menu" unicode="&#97;" d="M128 410c0 14 11 25 26 25l332 0c15 0 26-11 26-25 0-15-11-26-26-26l-332 0c-15 0-26 11-26 26z m358-128l-460 0c-15 0-26-12-26-26 0-14 11-26 26-26l460 0c15 0 26 12 26 26 0 14-11 26-26 26z m0-154l-230 0c-14 0-26-11-26-26 0-14 12-25 26-25l230 0c15 0 26 11 26 25 0 15-11 26-26 26z"/>
<glyph glyph-name="close" unicode="&#98;" d="M25 0c-10 0-19 6-23 15-4 10-2 21 5 28l462 462c10 9 26 9 36 0 9-10 9-26 0-36l-462-462c-5-4-11-7-18-7z m462 0c-7 0-13 3-18 7l-462 462c-9 10-9 26 0 36 10 9 26 9 36 0l462-462c7-7 9-18 5-28-4-9-13-15-23-15z"/>
<glyph glyph-name="amil" unicode="&#99;" d="M128 512c-35 0-64-29-64-64l0-36-30-16c-21-11-34-33-34-57l0-275c0-35 29-64 64-64l384 0c35 0 64 29 64 64l0 275c0 24-13 46-34 57l-30 16 0 36c0 35-29 64-64 64z m320-137l15-8c10-5 17-16 17-28l0-26-32-19z m-32-100l-120-72-40 24-40-24-120 72 0 173c0 18 14 32 32 32l256 0c18 0 32-14 32-32l0-173z m-352 19l-32 19 0 26c0 12 7 23 17 28l15 8z m416-18l0-184-153 92 153 92z m-1-220c-4-14-17-24-31-24l-384 0c-14 0-27 10-31 24l223 133z m-447 36l0 184 153-92-153-92z"/>
<glyph glyph-name="calendar" unicode="&#100;" d="M109 512c9 0 16-7 16-16l0-16 250 0 0 16c-1 6 2 12 7 16 5 3 12 3 17 0 5-4 8-10 7-16l0-16 31 0c35 1 63-27 63-62l0-343c0-17-6-33-18-45-12-12-28-18-44-18l-375 0c-17 0-33 6-45 18-11 12-18 28-18 44l0 344c0 35 28 63 63 63l31 0 0 15c0 9 7 16 15 16z m-78-125l0-313c0-17 14-31 31-31l375 0c18 0 32 14 32 31l0 313z"/>
<glyph glyph-name="cta-arrow" unicode="&#101;" d="M48 506c4 4 9 6 14 6 6 0 11-2 14-6l237-236c4-4 6-9 6-14 0-5-2-10-6-14l-237-237c-7-7-20-7-28 0-7 8-7 21 0 28l223 223-223 222c-3 4-5 9-5 14 0 5 2 10 5 14z m158 0c4 4 9 6 14 6 5 0 10-2 14-6l236-236c4-4 6-9 6-14 0-5-2-10-6-14l-236-237c-8-7-20-7-28 0-8 8-8 21 0 28l223 223-223 222c-4 4-6 9-6 14 0 5 2 10 6 14z"/>
<glyph glyph-name="linkedin" unicode="&#103;" d="M512 0l0 196c0 96-20 169-133 169-42 2-83-20-104-57l-2 0 0 49-106 0 0-357 110 0 0 177c0 46 9 91 67 91 57 0 57-53 57-94l0-174z m-503 357l111 0 0-357-111 0z m55 155c-26 0-50-16-60-40-10-24-4-52 14-70 19-18 46-24 71-14 24 10 39 34 39 60 0 35-28 64-64 64z"/>
<glyph glyph-name="oclock" unicode="&#104;" d="M256 400c0 6-3 11-8 14-5 3-11 3-16 0-5-3-8-8-8-14l0-176c0-6 3-11 8-14l112-64c8-4 17-1 22 6 4 8 1 17-6 22l-104 59z m0-400c141 0 256 114 256 256 0 141-115 256-256 256-141 0-256-115-256-256 0-141 115-256 256-256z m224 256c0-124-100-224-224-224-124 0-224 100-224 224 0 124 100 224 224 224 124 0 224-100 224-224z"/>
<glyph glyph-name="pin" unicode="&#105;" d="M393 226c-17-35-38-67-62-98-22-29-46-56-71-82-25 26-48 53-70 82-24 31-45 63-63 98-16 29-25 61-27 94 0 58 30 111 80 140 49 29 111 29 161 0 49-29 80-82 79-140-2-33-11-65-27-94z m-133-226c0 0 192 182 192 320 1 69-36 133-95 168-60 34-134 34-193 0-60-35-96-99-96-168 0-138 192-320 192-320z m0 256c-35 0-64 29-64 64 0 35 29 64 64 64 35 0 64-29 64-64 0-35-29-64-64-64z m0-32c53 0 96 43 96 96 0 53-43 96-96 96-53 0-96-43-96-96 0-53 43-96 96-96z"/>
<glyph glyph-name="play" unicode="&#106;" d="M458 218l-360-209c-14-9-32-9-46-1-14 8-23 24-24 40l0 418c1 17 10 32 24 40 14 8 32 8 46 0l360-209c15-9 23-24 23-40 0-16-8-31-23-39z"/>
<glyph glyph-name="quote" unicode="&#107;" d="M468 16c29 0 52 23 52 52l0 127c0 28-23 52-52 52l-72 0c0 18 1 36 3 55 3 17 8 35 16 51 7 14 17 26 29 36 13 10 29 15 45 14l0 81c-27 0-55-6-79-20-22-13-41-30-56-51-15-24-26-49-32-76-7-30-10-60-10-90l0-179c0-29 23-52 52-52z m-312 0c29 0 52 23 52 52l0 127c0 28-23 52-52 52l-72 0c0 18 1 36 3 55 3 17 8 35 16 51 7 14 17 26 29 35 13 10 29 16 45 15l0 81c-27 0-55-6-79-20-22-13-41-30-56-51-15-24-26-49-32-76-7-30-10-60-10-90l0-179c0-29 23-52 52-52z"/>
<glyph glyph-name="search" unicode="&#108;" d="M511 22l-117 117c80 92 73 230-15 313-89 83-228 81-314-5-86-86-88-225-5-314 83-88 221-95 313-15l117-117c6-6 16-6 21 0 6 5 6 15 0 21z m-424 127c-66 66-76 169-24 246 52 78 151 108 237 72 86-35 134-127 116-218-18-91-98-157-191-157-52 0-101 20-138 57z"/>
<glyph glyph-name="tag" unicode="&#109;" d="M59 449c0 35 28 63 63 63l250 0c34 0 62-28 62-63l0-421c0-6-3-11-8-14-5-3-11-3-16 1l-163 87-164-87c-4-3-11-4-16-1-5 3-8 8-8 14z m63 32c-18 0-32-14-32-32l0-392 148 77c5 4 12 4 17 0l148-77 0 392c0 9-3 17-9 23-6 5-14 9-22 9z"/>
<glyph glyph-name="tel" unicode="&#110;" d="M117 470c-4 4-10 7-16 8-6 0-12-2-17-6l-33-34c-15-14-21-36-14-56 28-80 74-152 133-212 60-59 132-105 212-133 20-7 42-1 56 14l34 33c4 5 6 11 6 17-1 6-4 12-9 16l-73 57c-6 4-12 6-19 4l-70-17c-19-5-39 1-53 14l-79 79c-13 14-19 34-14 53l17 70c2 7 0 13-4 19z m-57 26c12 11 27 17 43 16 16-1 31-9 41-21l57-74c11-14 15-32 10-48l-17-70c-2-8 0-15 6-21l78-78c6-6 13-8 21-6l70 18c16 4 34 0 47-11l74-57c13-10 21-25 22-41 1-16-5-31-17-43l-33-33c-24-24-59-33-92-22-84 30-161 78-224 141-63 63-112 140-141 225-11 32-2 68 22 92l33 33z"/>
<glyph glyph-name="youtube" unicode="&#111;" d="M258 512l2 0c66 1 131-3 196-11 22-6 39-23 45-45 4-15 6-30 7-45l1-3 0-9 1-3c2-29 2-56 2-62l0-3c0-6 0-35-3-66l0-3 0-3c-1-17-4-34-8-50-5-22-23-40-45-46-66-8-132-11-198-11l-4 0c-10 0-51 1-94 2l-5 0-3 0-6 1-5 0c-29 0-57 3-85 8-22 6-39 23-45 46-4 16-7 33-8 49l0 4 0 3c-2 22-3 43-3 65l0 4c0 7 0 31 2 57l0 3 0 2 1 3 0 9 1 3c1 15 3 30 7 45 5 22 23 39 45 45 28 5 56 8 85 9l5 0 6 0 2 0 6 0c31 1 61 2 91 2z m-53-103l0-154 133 77z"/>
<glyph glyph-name="minus" unicode="&#102;" d="M0 256c0 12 14 21 32 21l448 0c18 0 32-9 32-21 0-12-14-21-32-21l-448 0c-18 0-32 9-32 21z"/>
<glyph glyph-name="plus" unicode="&#112;" d="M256 512c12 0 21-10 21-21l0-214 214 0c11 0 21-9 21-21 0-12-10-21-21-21l-214 0 0-214c0-11-9-21-21-21-12 0-21 10-21 21l0 214-214 0c-11 0-21 9-21 21 0 12 10 21 21 21l214 0 0 214c0 11 9 21 21 21z"/>
<glyph glyph-name="instagram" unicode="&#113;" d="M256 512c-69 0-78 0-106-2-21 0-42-4-62-11-17-7-32-17-45-30-13-13-23-28-30-45-7-20-11-41-11-62-2-28-2-37-2-106 0-69 0-78 2-106 0-21 4-42 11-62 14-34 41-61 75-75 20-7 41-11 62-12 28-1 37-1 106-1 70 0 78 0 106 1 21 1 42 5 62 12 34 14 61 41 75 75 7 20 11 41 12 62 1 28 1 36 1 106 0 70 0 78-1 106-1 21-5 42-12 62-7 17-17 32-30 45-13 13-28 23-45 30-20 7-41 11-62 11-28 2-36 2-106 2z m-23-46l23 0c68 0 76 0 103-2 17 0 33-3 48-8 11-5 21-11 29-20 9-8 16-18 20-29 5-15 8-31 8-48 2-27 2-35 2-103 0-68 0-77-2-104 0-16-3-32-8-47-9-22-27-40-49-49-15-5-31-8-48-8-26-2-35-2-103-2-68 0-76 0-103 2-17 0-33 3-48 8-11 4-21 11-29 20-9 8-16 18-20 29-5 15-8 31-8 48-2 27-2 35-2 103 0 68 0 76 2 103 0 17 3 33 8 48 5 11 11 21 20 29 8 9 18 16 29 20 15 5 31 8 48 8 23 2 32 2 80 2z m160-43c-17 0-31-13-31-30 0-17 14-31 31-31 17 0 31 14 31 31 0 17-14 30-31 30z m-137-36c-73 0-131-59-131-131 0-73 59-132 131-132 73 0 132 59 132 132 0 73-59 132-132 131z m0-46c47 0 85-38 86-85 0-47-39-85-86-85-47 0-85 38-85 85 0 47 38 85 85 85z"/>
<glyph glyph-name="tik-tok" unicode="&#114;" d="M480 384c-29 0-56 9-78 26-24 18-42 46-48 77-2 8-3 16-3 25l-83 0 0-228-1-125c0-34-21-62-51-72-9-3-19-4-28-4-13 1-25 5-35 11-22 13-37 36-37 63-1 43 34 77 76 77 8 0 16-1 24-4l0 85c-8 1-16 2-24 2-47 0-90-19-121-54-23-26-37-59-39-94-3-46 14-90 46-122 5-5 10-9 15-13 28-22 63-34 99-34 8 0 16 1 24 2 33 5 64 21 89 45 30 29 46 69 47 111l-1 187c14-12 30-21 47-28 26-11 54-16 83-16l0 83c0 0-1 0-1 0z"/>
<glyph glyph-name="facebook" unicode="&#115;" d="M301 0l0 233 79 0 11 91-90 0 0 59c0 26 7 44 45 44l49 0 0 81c-24 3-47 4-71 4-32 2-64-10-87-33-22-23-33-55-30-87l0-68-79 0 0-91 79 0 0-233z"/>
<glyph glyph-name="phone" unicode="&#116;" d="M457 158c0-5-1-12-3-20-2-9-4-15-6-20-4-10-15-20-35-30-17-10-35-15-53-15-5 0-10 0-15 1-5 1-10 2-16 4-6 1-11 3-14 4-3 1-8 3-16 6-7 3-12 4-14 5-18 7-35 14-50 24-24 15-49 35-75 61-26 26-47 51-62 76-9 14-17 31-23 50-1 1-3 6-6 14-2 7-4 13-5 16-1 3-3 7-5 13-1 6-2 12-3 17-1 4-1 9-1 15 0 17 5 35 14 53 11 19 21 31 31 35 4 2 11 4 19 6 9 1 15 2 20 2 3 0 5 0 6 0 4-2 9-9 16-22 2-4 5-9 8-16 4-6 7-12 10-18 3-5 6-10 9-15 1-1 2-3 5-7 3-4 5-8 6-10 1-3 2-6 2-8 0-4-3-9-8-15-5-5-11-11-18-15-6-5-12-10-17-16-6-5-9-9-9-13 0-1 1-4 2-6 1-3 2-5 2-6 1-1 2-4 4-7 2-3 3-5 4-5 14-26 31-49 49-67 19-19 41-36 67-50 1 0 3-1 6-3 3-2 5-4 7-4 1-1 3-2 6-3 2-1 4-1 6-1 3 0 8 2 13 8 5 5 11 11 15 18 5 6 10 12 16 17 6 6 10 8 14 8 3 0 6 0 8-2 3-1 7-3 11-6 4-2 6-4 7-5 4-3 10-6 15-9 5-3 11-6 18-10 7-3 12-6 16-8 13-7 20-12 21-15 1-2 1-4 1-6z"/>
<glyph glyph-name="arrow-right" unicode="&#117;" d="M318 249l-216 216 47 47 263-263-263-263-47 47z"/>
<glyph glyph-name="arrow-left" unicode="&#118;" d="M196 249l216-216-47-46-263 262 263 263 47-47z"/>
</font>
</defs>
</svg>
